<svg width="200" height="150" viewBox="0 0 800 600" fill="none" xmlns="http://www.w3.org/2000/svg" data-reactroot="">
<path d="M709.709 402.021H94.771V545.316H709.709V402.021Z" fill="#C4B6FF"></path>
<path d="M709.709 402.021H94.7715V545.316H709.709V402.021Z" fill="black" fill-opacity="0.53"></path>
<path d="M709.707 443.676H390.939V566.768H709.707V443.676Z" fill="#C4B6FF"></path>
<path d="M689.61 554.271H411.039C406.041 554.271 401.979 550.21 401.979 545.211V498.037C401.979 493.038 406.041 488.977 411.039 488.977H689.61C694.608 488.977 698.67 493.038 698.67 498.037V545.211C698.67 550.21 694.608 554.271 689.61 554.271Z" fill="#B5CDFB"></path>
<path d="M726.373 475.023H78.1108C69.4673 475.023 62.49 468.046 62.49 459.402C62.49 450.759 69.4673 443.781 78.1108 443.781H726.373C735.017 443.781 741.994 450.759 741.994 459.402C741.994 467.941 735.017 475.023 726.373 475.023Z" fill="#b153fd"></path>
<path d="M554.021 528.446C557.76 528.446 560.79 525.416 560.79 521.677C560.79 517.939 557.76 514.908 554.021 514.908C550.283 514.908 547.252 517.939 547.252 521.677C547.252 525.416 550.283 528.446 554.021 528.446Z" fill="#C4B6FF"></path>
<path d="M790.002 397.336H137.47V406.708H790.002V397.336Z" fill="#C4B6FF"></path>
<path d="M531.007 261.018H465.088V393.898H531.007V261.018Z" fill="#B5CDFB"></path>
<path d="M698.152 331.103H298.052C293.053 331.103 288.992 327.042 288.992 322.043V145.737C288.992 140.738 293.053 136.677 298.052 136.677H698.152C703.151 136.677 707.212 140.738 707.212 145.737V322.147C707.212 327.146 703.151 331.103 698.152 331.103Z" fill="#C4B6FF"></path>
<path opacity="0.25" d="M681.281 192.391H314.921C310.339 192.391 306.694 188.747 306.694 184.164C306.694 179.582 310.339 175.938 314.921 175.938H681.385C685.967 175.938 689.612 179.582 689.612 184.164C689.612 188.642 685.863 192.391 681.281 192.391Z" fill="#E6E6E6"></path>
<path opacity="0.25" d="M367.719 313.087H318.253C311.797 313.087 306.59 307.88 306.59 301.424V210.927C306.59 204.471 311.797 199.264 318.253 199.264H367.719C374.176 199.264 379.383 204.471 379.383 210.927V301.424C379.383 307.88 374.176 313.087 367.719 313.087Z" fill="#E6E6E6"></path>
<path opacity="0.25" d="M452.697 249.771H401.773C398.233 249.771 395.317 246.855 395.317 243.314V216.03C395.317 212.489 398.233 209.573 401.773 209.573H452.697C456.238 209.573 459.154 212.489 459.154 216.03V243.314C459.258 246.855 456.342 249.771 452.697 249.771Z" fill="#E6E6E6"></path>
<path opacity="0.25" d="M526.637 249.771H475.713C472.172 249.771 469.256 246.855 469.256 243.314V216.03C469.256 212.489 472.172 209.573 475.713 209.573H526.637C530.177 209.573 533.093 212.489 533.093 216.03V243.314C533.197 246.855 530.282 249.771 526.637 249.771Z" fill="#E6E6E6"></path>
<path opacity="0.25" d="M600.572 249.771H549.648C546.108 249.771 543.192 246.855 543.192 243.314V216.03C543.192 212.489 546.108 209.573 549.648 209.573H600.572C604.113 209.573 607.029 212.489 607.029 216.03V243.314C607.133 246.855 604.217 249.771 600.572 249.771Z" fill="#E6E6E6"></path>
<path opacity="0.25" d="M674.512 249.771H623.588C620.047 249.771 617.132 246.855 617.132 243.314V216.03C617.132 212.489 620.047 209.573 623.588 209.573H674.512C678.053 209.573 680.969 212.489 680.969 216.03V243.314C681.073 246.855 678.157 249.771 674.512 249.771Z" fill="#E6E6E6"></path>
<path d="M412.708 443.678H251.189C248.898 443.678 246.919 441.803 246.919 439.408V431.598C246.919 429.307 248.794 427.328 251.189 427.328H404.898C411.562 427.328 416.978 432.743 416.978 439.408C416.978 441.803 415.103 443.678 412.708 443.678Z" fill="#B5CDFB"></path>
<path opacity="0.25" d="M452.697 296.946H401.773C398.233 296.946 395.317 294.03 395.317 290.489V263.205C395.317 259.664 398.233 256.748 401.773 256.748H452.697C456.238 256.748 459.154 259.664 459.154 263.205V290.489C459.258 294.03 456.342 296.946 452.697 296.946Z" fill="#E6E6E6"></path>
<path opacity="0.25" d="M526.637 296.946H475.713C472.172 296.946 469.256 294.03 469.256 290.489V263.205C469.256 259.664 472.172 256.748 475.713 256.748H526.637C530.177 256.748 533.093 259.664 533.093 263.205V290.489C533.197 294.03 530.282 296.946 526.637 296.946Z" fill="#E6E6E6"></path>
<path opacity="0.25" d="M600.572 296.946H549.648C546.108 296.946 543.192 294.03 543.192 290.489V263.205C543.192 259.664 546.108 256.748 549.648 256.748H600.572C604.113 256.748 607.029 259.664 607.029 263.205V290.489C607.133 294.03 604.217 296.946 600.572 296.946Z" fill="#E6E6E6"></path>
<path opacity="0.25" d="M674.512 296.946H623.588C620.047 296.946 617.132 294.03 617.132 290.489V263.205C617.132 259.664 620.047 256.748 623.588 256.748H674.512C678.053 256.748 680.969 259.664 680.969 263.205V290.489C681.073 294.03 678.157 296.946 674.512 296.946Z" fill="#E6E6E6"></path>
<path opacity="0.67" d="M641.914 184.164H293.883C286.489 184.164 280.449 178.124 280.449 170.73V33.0589C280.449 25.665 286.489 19.625 293.883 19.625H641.81C649.204 19.625 655.244 25.665 655.244 33.0589V170.626C655.348 178.124 649.308 184.164 641.914 184.164Z" fill="#E6E6E6"></path>
<path d="M207.97 184.164H47.0764C39.6826 184.164 33.6426 178.124 33.6426 170.73V33.0589C33.6426 25.665 39.6826 19.625 47.0764 19.625H207.97C215.364 19.625 221.404 25.665 221.404 33.0589V170.626C221.404 178.124 215.364 184.164 207.97 184.164Z" fill="#b153fd"></path>
<path d="M495.811 313.087H400.316C398.545 313.087 396.983 311.63 396.983 309.755V264.246C396.983 262.476 398.441 260.914 400.316 260.914H495.811C497.581 260.914 499.143 262.372 499.143 264.246V309.755C499.143 311.63 497.685 313.087 495.811 313.087Z" fill="#b153fd"></path>
<path d="M490.294 306.839H405.942C404.796 306.839 403.859 305.902 403.859 304.757C403.859 303.611 404.796 302.674 405.942 302.674H490.294C491.439 302.674 492.377 303.611 492.377 304.757C492.377 305.902 491.439 306.839 490.294 306.839Z" fill="#B5CDFB"></path>
<path d="M412.712 270.39H403.339C402.194 270.39 401.256 269.453 401.256 268.307C401.256 267.162 402.194 266.225 403.339 266.225H412.712C413.857 266.225 414.794 267.162 414.794 268.307C414.794 269.453 413.857 270.39 412.712 270.39Z" fill="#B5CDFB"></path>
<path d="M491.856 270.39H482.484C481.338 270.39 480.401 269.453 480.401 268.307C480.401 267.162 481.338 266.225 482.484 266.225H491.856C493.002 266.225 493.939 267.162 493.939 268.307C493.939 269.453 493.002 270.39 491.856 270.39Z" fill="#B5CDFB"></path>
<path d="M476.234 270.39H466.861C465.716 270.39 464.779 269.453 464.779 268.307C464.779 267.162 465.716 266.225 466.861 266.225H476.234C477.379 266.225 478.317 267.162 478.317 268.307C478.317 269.453 477.379 270.39 476.234 270.39Z" fill="#B5CDFB"></path>
<path d="M611.405 313.087H515.91C514.14 313.087 512.578 311.63 512.578 309.755V264.246C512.578 262.476 514.036 260.914 515.91 260.914H611.405C613.175 260.914 614.738 262.372 614.738 264.246V309.755C614.738 311.63 613.28 313.087 611.405 313.087Z" fill="#b153fd"></path>
<path d="M605.888 306.839H521.536C520.39 306.839 519.453 305.902 519.453 304.757C519.453 303.611 520.39 302.674 521.536 302.674H605.888C607.034 302.674 607.971 303.611 607.971 304.757C607.971 305.902 607.034 306.839 605.888 306.839Z" fill="#B5CDFB"></path>
<path d="M528.306 270.39H518.933C517.788 270.39 516.851 269.453 516.851 268.307C516.851 267.162 517.788 266.225 518.933 266.225H528.306C529.451 266.225 530.389 267.162 530.389 268.307C530.389 269.453 529.451 270.39 528.306 270.39Z" fill="#B5CDFB"></path>
<path d="M607.45 270.39H598.078C596.932 270.39 595.995 269.453 595.995 268.307C595.995 267.162 596.932 266.225 598.078 266.225H607.45C608.596 266.225 609.533 267.162 609.533 268.307C609.533 269.453 608.596 270.39 607.45 270.39Z" fill="#B5CDFB"></path>
<path d="M591.828 270.39H582.455C581.31 270.39 580.373 269.453 580.373 268.307C580.373 267.162 581.31 266.225 582.455 266.225H591.828C592.973 266.225 593.911 267.162 593.911 268.307C593.911 269.453 592.973 270.39 591.828 270.39Z" fill="#B5CDFB"></path>
<path d="M201.514 100.852H53.6376C51.8673 100.852 50.3052 99.3945 50.3052 97.52V36.2865C50.3052 34.5162 51.7631 32.9541 53.6376 32.9541H201.41C203.181 32.9541 204.743 34.412 204.743 36.2865V97.52C204.743 99.2903 203.285 100.852 201.514 100.852Z" fill="#C4B6FF"></path>
<path d="M198.078 87.315H57.0747C55.9292 87.315 54.9919 86.3777 54.9919 85.2322C54.9919 84.0867 55.9292 83.1494 57.0747 83.1494H198.078C199.224 83.1494 200.161 84.0867 200.161 85.2322C200.161 86.3777 199.224 87.315 198.078 87.315Z" fill="black" fill-opacity="0.39"></path>
<path d="M199.119 118.661H52.3879C51.2424 118.661 50.3052 117.723 50.3052 116.578C50.3052 115.432 51.2424 114.495 52.3879 114.495H199.015C200.161 114.495 201.098 115.432 201.098 116.578C201.202 117.723 200.265 118.661 199.119 118.661Z" fill="#2E3C8C"></path>
<path d="M115.912 127.72H52.3879C51.2424 127.72 50.3052 126.783 50.3052 125.637C50.3052 124.492 51.2424 123.555 52.3879 123.555H115.912C117.058 123.555 117.995 124.492 117.995 125.637C117.995 126.783 117.162 127.72 115.912 127.72Z" fill="#2E3C8C"></path>
<path d="M115.912 136.781H52.3879C51.2424 136.781 50.3052 135.844 50.3052 134.698C50.3052 133.552 51.2424 132.615 52.3879 132.615H115.912C117.058 132.615 117.995 133.552 117.995 134.698C117.995 135.844 117.162 136.781 115.912 136.781Z" fill="#2E3C8C"></path>
<path d="M115.912 145.736H52.3879C51.2424 145.736 50.3052 144.799 50.3052 143.653C50.3052 142.508 51.2424 141.57 52.3879 141.57H115.912C117.058 141.57 117.995 142.508 117.995 143.653C117.995 144.903 117.162 145.736 115.912 145.736Z" fill="#2E3C8C"></path>
<path d="M115.912 154.796H52.3879C51.2424 154.796 50.3052 153.859 50.3052 152.714C50.3052 151.568 51.2424 150.631 52.3879 150.631H115.912C117.058 150.631 117.995 151.568 117.995 152.714C117.995 153.859 117.162 154.796 115.912 154.796Z" fill="#2E3C8C"></path>
<path d="M88.9409 163.857H52.4924C51.3469 163.857 50.4097 162.92 50.4097 161.774C50.4097 160.629 51.3469 159.691 52.4924 159.691H88.9409C90.0865 159.691 91.0237 160.629 91.0237 161.774C91.0237 162.92 90.0865 163.857 88.9409 163.857Z" fill="#2E3C8C"></path>
<path d="M68.3227 44.6187H58.9502C57.8047 44.6187 56.8674 43.6814 56.8674 42.5359C56.8674 41.3904 57.8047 40.4531 58.9502 40.4531H68.3227C69.4682 40.4531 70.4054 41.3904 70.4054 42.5359C70.4054 43.6814 69.4682 44.6187 68.3227 44.6187Z" fill="black" fill-opacity="0.39"></path>
<path d="M196.62 44.6187H187.247C186.102 44.6187 185.164 43.6814 185.164 42.5359C185.164 41.3904 186.102 40.4531 187.247 40.4531H196.62C197.765 40.4531 198.702 41.3904 198.702 42.5359C198.702 43.6814 197.765 44.6187 196.62 44.6187Z" fill="black" fill-opacity="0.39"></path>
<path d="M180.997 44.6187H171.625C170.479 44.6187 169.542 43.6814 169.542 42.5359C169.542 41.3904 170.479 40.4531 171.625 40.4531H180.997C182.143 40.4531 183.08 41.3904 183.08 42.5359C183.08 43.6814 182.143 44.6187 180.997 44.6187Z" fill="black" fill-opacity="0.39"></path>
<path d="M61.5517 109.705H52.1792C51.0337 109.705 50.0964 108.767 50.0964 107.622C50.0964 106.476 51.0337 105.539 52.1792 105.539H61.5517C62.6972 105.539 63.6344 106.476 63.6344 107.622C63.6344 108.767 62.6972 109.705 61.5517 109.705Z" fill="#2E3C8C"></path>
<path d="M197.66 109.705H188.287C187.142 109.705 186.205 108.767 186.205 107.622C186.205 106.476 187.142 105.539 188.287 105.539H197.66C198.805 105.539 199.743 106.476 199.743 107.622C199.743 108.767 198.805 109.705 197.66 109.705Z" fill="#2E3C8C"></path>
<path d="M182.041 109.705H172.669C171.523 109.705 170.586 108.767 170.586 107.622C170.586 106.476 171.523 105.539 172.669 105.539H182.041C183.187 105.539 184.124 106.476 184.124 107.622C184.124 108.767 183.187 109.705 182.041 109.705Z" fill="#2E3C8C"></path>
<path d="M198.081 127.72H134.556C133.411 127.72 132.474 126.783 132.474 125.637C132.474 124.492 133.411 123.555 134.556 123.555H198.081C199.226 123.555 200.164 124.492 200.164 125.637C200.164 126.783 199.226 127.72 198.081 127.72Z" fill="#2E3C8C"></path>
<path d="M198.081 136.781H134.556C133.411 136.781 132.474 135.844 132.474 134.698C132.474 133.552 133.411 132.615 134.556 132.615H198.081C199.226 132.615 200.164 133.552 200.164 134.698C200.164 135.844 199.226 136.781 198.081 136.781Z" fill="#2E3C8C"></path>
<path d="M198.081 145.736H134.556C133.411 145.736 132.474 144.799 132.474 143.653C132.474 142.508 133.411 141.57 134.556 141.57H198.081C199.226 141.57 200.164 142.508 200.164 143.653C200.164 144.903 199.226 145.736 198.081 145.736Z" fill="#2E3C8C"></path>
<path d="M198.081 154.796H134.556C133.411 154.796 132.474 153.859 132.474 152.714C132.474 151.568 133.411 150.631 134.556 150.631H198.081C199.226 150.631 200.164 151.568 200.164 152.714C200.164 153.859 199.226 154.796 198.081 154.796Z" fill="#2E3C8C"></path>
<path d="M171.005 163.857H134.556C133.411 163.857 132.474 162.92 132.474 161.774C132.474 160.629 133.411 159.691 134.556 159.691H171.005C172.15 159.691 173.088 160.629 173.088 161.774C173.088 162.92 172.15 163.857 171.005 163.857Z" fill="#2E3C8C"></path>
<path d="M726.999 313.087H631.504C629.734 313.087 628.172 311.63 628.172 309.755V264.246C628.172 262.476 629.63 260.914 631.504 260.914H726.999C728.77 260.914 730.332 262.372 730.332 264.246V309.755C730.332 311.63 728.874 313.087 726.999 313.087Z" fill="#b153fd"></path>
<path d="M721.482 306.839H637.13C635.985 306.839 635.047 305.902 635.047 304.757C635.047 303.611 635.985 302.674 637.13 302.674H721.482C722.628 302.674 723.565 303.611 723.565 304.757C723.565 305.902 722.628 306.839 721.482 306.839Z" fill="#C4B6FF"></path>
<path d="M643.9 270.39H634.528C633.382 270.39 632.445 269.453 632.445 268.307C632.445 267.162 633.382 266.225 634.528 266.225H643.9C645.046 266.225 645.983 267.162 645.983 268.307C645.983 269.453 645.046 270.39 643.9 270.39Z" fill="#C4B6FF"></path>
<path d="M723.045 270.39H713.672C712.527 270.39 711.589 269.453 711.589 268.307C711.589 267.162 712.527 266.225 713.672 266.225H723.045C724.19 266.225 725.127 267.162 725.127 268.307C725.127 269.453 724.19 270.39 723.045 270.39Z" fill="#C4B6FF"></path>
<path d="M707.422 270.39H698.05C696.904 270.39 695.967 269.453 695.967 268.307C695.967 267.162 696.904 266.225 698.05 266.225H707.422C708.568 266.225 709.505 267.162 709.505 268.307C709.505 269.453 708.568 270.39 707.422 270.39Z" fill="#C4B6FF"></path>
<path d="M350.898 62.3215H250.508C248.009 62.3215 246.031 60.3429 246.031 57.8435V38.6821C246.031 36.1827 248.009 34.2041 250.508 34.2041H350.898C353.397 34.2041 355.376 36.1827 355.376 38.6821V57.8435C355.376 60.2387 353.397 62.3215 350.898 62.3215ZM250.508 35.2455C248.634 35.2455 247.072 36.8076 247.072 38.6821V57.8435C247.072 59.718 248.634 61.2801 250.508 61.2801H350.898C352.773 61.2801 354.335 59.718 354.335 57.8435V38.6821C354.335 36.8076 352.773 35.2455 350.898 35.2455H250.508Z" fill="#b153fd"></path>
<path d="M347.931 89.398H252.436C250.666 89.398 249.104 87.9401 249.104 86.0656V40.557C249.104 38.7867 250.562 37.2246 252.436 37.2246H347.931C349.702 37.2246 351.264 38.6825 351.264 40.557V86.0656C351.264 87.8359 349.806 89.398 347.931 89.398Z" fill="#C4B6FF"></path>
<path d="M342.414 83.1489H258.062C256.917 83.1489 255.979 82.2117 255.979 81.0662C255.979 79.9206 256.917 78.9834 258.062 78.9834H342.414C343.56 78.9834 344.497 79.9206 344.497 81.0662C344.497 82.2117 343.56 83.1489 342.414 83.1489Z" fill="black" fill-opacity="0.39"></path>
<path d="M264.828 46.7007H255.456C254.31 46.7007 253.373 45.7635 253.373 44.6179C253.373 43.4724 254.31 42.5352 255.456 42.5352H264.828C265.974 42.5352 266.911 43.4724 266.911 44.6179C266.911 45.7635 265.974 46.7007 264.828 46.7007Z" fill="black" fill-opacity="0.39"></path>
<path d="M343.977 46.7007H334.604C333.459 46.7007 332.521 45.7635 332.521 44.6179C332.521 43.4724 333.459 42.5352 334.604 42.5352H343.977C345.122 42.5352 346.059 43.4724 346.059 44.6179C346.059 45.7635 345.122 46.7007 343.977 46.7007Z" fill="black" fill-opacity="0.39"></path>
<path d="M328.354 46.7007H318.982C317.836 46.7007 316.899 45.7635 316.899 44.6179C316.899 43.4724 317.836 42.5352 318.982 42.5352H328.354C329.5 42.5352 330.437 43.4724 330.437 44.6179C330.437 45.7635 329.5 46.7007 328.354 46.7007Z" fill="black" fill-opacity="0.39"></path>
<path d="M340.227 74.8181H259.311C257.228 74.8181 255.562 73.1519 255.562 71.0691V54.6152C255.562 52.5324 257.228 50.8662 259.311 50.8662H340.227C342.309 50.8662 343.976 52.5324 343.976 54.6152V70.9649C343.976 73.0477 342.309 74.8181 340.227 74.8181Z" fill="#b153fd"></path>
<path d="M297.112 59.9272V66.6962C297.112 67.4252 297.945 67.9459 298.57 67.4252L303.36 63.9886C303.881 63.572 303.881 62.8431 303.36 62.4265L298.57 58.99C297.945 58.6775 297.112 59.1982 297.112 59.9272Z" fill="#B5CDFB"></path>
<path d="M480.031 62.3215H379.641C377.142 62.3215 375.163 60.3429 375.163 57.8435V38.6821C375.163 36.1827 377.142 34.2041 379.641 34.2041H480.031C482.53 34.2041 484.509 36.1827 484.509 38.6821V57.8435C484.509 60.2387 482.53 62.3215 480.031 62.3215ZM379.641 35.2455C377.767 35.2455 376.205 36.8076 376.205 38.6821V57.8435C376.205 59.718 377.767 61.2801 379.641 61.2801H480.031C481.905 61.2801 483.467 59.718 483.467 57.8435V38.6821C483.467 36.8076 481.905 35.2455 480.031 35.2455H379.641Z" fill="#b153fd"></path>
<path d="M477.064 89.398H381.569C379.798 89.398 378.236 87.9401 378.236 86.0656V40.557C378.236 38.7867 379.694 37.2246 381.569 37.2246H477.064C478.834 37.2246 480.396 38.6825 480.396 40.557V86.0656C480.396 87.8359 478.938 89.398 477.064 89.398Z" fill="#C4B6FF"></path>
<path d="M471.547 83.1489H387.195C386.049 83.1489 385.112 82.2117 385.112 81.0662C385.112 79.9206 386.049 78.9834 387.195 78.9834H471.547C472.692 78.9834 473.63 79.9206 473.63 81.0662C473.63 82.2117 472.692 83.1489 471.547 83.1489Z" fill="black" fill-opacity="0.39"></path>
<path d="M393.961 46.7007H384.588C383.443 46.7007 382.505 45.7635 382.505 44.6179C382.505 43.4724 383.443 42.5352 384.588 42.5352H393.961C395.106 42.5352 396.043 43.4724 396.043 44.6179C396.043 45.7635 395.106 46.7007 393.961 46.7007Z" fill="black" fill-opacity="0.39"></path>
<path d="M473.109 46.7007H463.737C462.591 46.7007 461.654 45.7635 461.654 44.6179C461.654 43.4724 462.591 42.5352 463.737 42.5352H473.109C474.255 42.5352 475.192 43.4724 475.192 44.6179C475.192 45.7635 474.255 46.7007 473.109 46.7007Z" fill="black" fill-opacity="0.39"></path>
<path d="M457.487 46.7007H448.114C446.969 46.7007 446.031 45.7635 446.031 44.6179C446.031 43.4724 446.969 42.5352 448.114 42.5352H457.487C458.632 42.5352 459.57 43.4724 459.57 44.6179C459.57 45.7635 458.632 46.7007 457.487 46.7007Z" fill="black" fill-opacity="0.39"></path>
<path d="M469.359 74.8181H388.443C386.361 74.8181 384.694 73.1519 384.694 71.0691V54.6152C384.694 52.5324 386.361 50.8662 388.443 50.8662H469.359C471.442 50.8662 473.108 52.5324 473.108 54.6152V70.9649C473.108 73.0477 471.442 74.8181 469.359 74.8181Z" fill="#b153fd"></path>
<path d="M426.244 59.9272V66.6962C426.244 67.4252 427.077 67.9459 427.702 67.4252L432.493 63.9886C433.013 63.572 433.013 62.8431 432.493 62.4265L427.702 58.99C427.077 58.6775 426.244 59.1982 426.244 59.9272Z" fill="#B5CDFB"></path>
<path d="M609.164 62.3215H508.774C506.275 62.3215 504.296 60.3429 504.296 57.8435V38.6821C504.296 36.1827 506.275 34.2041 508.774 34.2041H609.164C611.663 34.2041 613.642 36.1827 613.642 38.6821V57.8435C613.642 60.2387 611.663 62.3215 609.164 62.3215ZM508.774 35.2455C506.9 35.2455 505.338 36.8076 505.338 38.6821V57.8435C505.338 59.718 506.9 61.2801 508.774 61.2801H609.164C611.038 61.2801 612.6 59.718 612.6 57.8435V38.6821C612.6 36.8076 611.038 35.2455 609.164 35.2455H508.774Z" fill="#b153fd"></path>
<path d="M606.196 89.398H510.701C508.931 89.398 507.369 87.9401 507.369 86.0656V40.557C507.369 38.7867 508.827 37.2246 510.701 37.2246H606.196C607.966 37.2246 609.529 38.6825 609.529 40.557V86.0656C609.529 87.8359 608.071 89.398 606.196 89.398Z" fill="#C4B6FF"></path>
<path d="M600.675 83.1489H516.323C515.177 83.1489 514.24 82.2117 514.24 81.0662C514.24 79.9206 515.177 78.9834 516.323 78.9834H600.675C601.821 78.9834 602.758 79.9206 602.758 81.0662C602.758 82.2117 601.821 83.1489 600.675 83.1489Z" fill="black" fill-opacity="0.39"></path>
<path d="M523.093 46.7007H513.72C512.575 46.7007 511.638 45.7635 511.638 44.6179C511.638 43.4724 512.575 42.5352 513.72 42.5352H523.093C524.238 42.5352 525.176 43.4724 525.176 44.6179C525.176 45.7635 524.238 46.7007 523.093 46.7007Z" fill="black" fill-opacity="0.39"></path>
<path d="M602.237 46.7007H592.865C591.719 46.7007 590.782 45.7635 590.782 44.6179C590.782 43.4724 591.719 42.5352 592.865 42.5352H602.237C603.383 42.5352 604.32 43.4724 604.32 44.6179C604.32 45.7635 603.383 46.7007 602.237 46.7007Z" fill="black" fill-opacity="0.39"></path>
<path d="M586.619 46.7007H577.247C576.101 46.7007 575.164 45.7635 575.164 44.6179C575.164 43.4724 576.101 42.5352 577.247 42.5352H586.619C587.765 42.5352 588.702 43.4724 588.702 44.6179C588.702 45.7635 587.765 46.7007 586.619 46.7007Z" fill="black" fill-opacity="0.39"></path>
<path d="M598.491 74.8181H517.576C515.493 74.8181 513.827 73.1519 513.827 71.0691V54.6152C513.827 52.5324 515.493 50.8662 517.576 50.8662H598.491C600.574 50.8662 602.24 52.5324 602.24 54.6152V70.9649C602.24 73.0477 600.574 74.8181 598.491 74.8181Z" fill="#b153fd"></path>
<path d="M555.377 59.9272V66.6962C555.377 67.4252 556.21 67.9459 556.835 67.4252L561.625 63.9886C562.146 63.572 562.146 62.8431 561.625 62.4265L556.835 58.99C556.21 58.6775 555.377 59.1982 555.377 59.9272Z" fill="#B5CDFB"></path>
<path d="M396.775 133.136H296.385C293.886 133.136 291.907 131.157 291.907 128.658V109.497C291.907 106.997 293.886 105.019 296.385 105.019H396.775C399.274 105.019 401.253 106.997 401.253 109.497V128.658C401.253 131.053 399.274 133.136 396.775 133.136ZM296.385 106.06C294.511 106.06 292.949 107.622 292.949 109.497V128.658C292.949 130.532 294.511 132.095 296.385 132.095H396.775C398.649 132.095 400.211 130.532 400.211 128.658V109.497C400.211 107.622 398.649 106.06 396.775 106.06H296.385Z" fill="#B5CDFB"></path>
<path d="M389.274 153.963H304.922C303.776 153.963 302.839 153.026 302.839 151.881C302.839 150.735 303.776 149.798 304.922 149.798H389.274C390.419 149.798 391.357 150.735 391.357 151.881C391.357 153.026 390.419 153.963 389.274 153.963Z" fill="#C4B6FF"></path>
<path d="M311.692 117.515H302.319C301.174 117.515 300.237 116.578 300.237 115.432C300.237 114.287 301.174 113.35 302.319 113.35H311.692C312.837 113.35 313.775 114.287 313.775 115.432C313.775 116.578 312.837 117.515 311.692 117.515Z" fill="#C4B6FF"></path>
<path d="M390.836 117.515H381.464C380.318 117.515 379.381 116.578 379.381 115.432C379.381 114.287 380.318 113.35 381.464 113.35H390.836C391.982 113.35 392.919 114.287 392.919 115.432C392.919 116.578 391.982 117.515 390.836 117.515Z" fill="#C4B6FF"></path>
<path d="M375.218 117.515H365.845C364.7 117.515 363.762 116.578 363.762 115.432C363.762 114.287 364.7 113.35 365.845 113.35H375.218C376.363 113.35 377.3 114.287 377.3 115.432C377.3 116.578 376.363 117.515 375.218 117.515Z" fill="#C4B6FF"></path>
<path d="M387.09 145.633H306.174C304.092 145.633 302.425 143.967 302.425 141.884V125.534C302.425 123.451 304.092 121.785 306.174 121.785H387.09C389.173 121.785 390.839 123.451 390.839 125.534V141.884C390.839 143.863 389.173 145.633 387.09 145.633Z" fill="#C4B6FF"></path>
<path d="M343.975 130.741V137.51C343.975 138.239 344.808 138.759 345.433 138.239L350.224 134.802C350.744 134.386 350.744 133.657 350.224 133.24L345.433 129.803C344.808 129.491 343.975 130.012 343.975 130.741Z" fill="#B5CDFB"></path>
<path d="M512.369 133.136H411.979C409.48 133.136 407.501 131.157 407.501 128.658V109.497C407.501 106.997 409.48 105.019 411.979 105.019H512.369C514.868 105.019 516.847 106.997 516.847 109.497V128.658C516.847 131.053 514.868 133.136 512.369 133.136ZM411.979 106.06C410.105 106.06 408.543 107.622 408.543 109.497V128.658C408.543 130.532 410.105 132.095 411.979 132.095H512.369C514.243 132.095 515.806 130.532 515.806 128.658V109.497C515.806 107.622 514.243 106.06 512.369 106.06H411.979Z" fill="#B5CDFB"></path>
<path d="M504.868 153.963H420.516C419.37 153.963 418.433 153.026 418.433 151.881C418.433 150.735 419.37 149.798 420.516 149.798H504.868C506.014 149.798 506.951 150.735 506.951 151.881C506.951 153.026 506.014 153.963 504.868 153.963Z" fill="#C4B6FF"></path>
<path d="M427.286 117.515H417.914C416.768 117.515 415.831 116.578 415.831 115.432C415.831 114.287 416.768 113.35 417.914 113.35H427.286C428.432 113.35 429.369 114.287 429.369 115.432C429.369 116.578 428.432 117.515 427.286 117.515Z" fill="#C4B6FF"></path>
<path d="M506.43 117.515H497.058C495.912 117.515 494.975 116.578 494.975 115.432C494.975 114.287 495.912 113.35 497.058 113.35H506.43C507.576 113.35 508.513 114.287 508.513 115.432C508.513 116.578 507.576 117.515 506.43 117.515Z" fill="#C4B6FF"></path>
<path d="M490.812 117.515H481.439C480.294 117.515 479.357 116.578 479.357 115.432C479.357 114.287 480.294 113.35 481.439 113.35H490.812C491.957 113.35 492.895 114.287 492.895 115.432C492.895 116.578 491.957 117.515 490.812 117.515Z" fill="#C4B6FF"></path>
<path d="M502.684 145.633H421.769C419.686 145.633 418.02 143.967 418.02 141.884V125.534C418.02 123.451 419.686 121.785 421.769 121.785H502.684C504.767 121.785 506.433 123.451 506.433 125.534V141.884C506.433 143.863 504.767 145.633 502.684 145.633Z" fill="#C4B6FF"></path>
<path d="M459.57 130.741V137.51C459.57 138.239 460.403 138.759 461.028 138.239L465.818 134.802C466.339 134.386 466.339 133.657 465.818 133.24L461.028 129.803C460.403 129.491 459.57 130.012 459.57 130.741Z" fill="#B5CDFB"></path>
<path d="M627.963 133.136H527.574C525.074 133.136 523.096 131.157 523.096 128.658V109.497C523.096 106.997 525.074 105.019 527.574 105.019H627.963C630.463 105.019 632.441 106.997 632.441 109.497V128.658C632.441 131.053 630.463 133.136 627.963 133.136ZM527.574 106.06C525.699 106.06 524.137 107.622 524.137 109.497V128.658C524.137 130.532 525.699 132.095 527.574 132.095H627.963C629.838 132.095 631.4 130.532 631.4 128.658V109.497C631.4 107.622 629.838 106.06 627.963 106.06H527.574Z" fill="#B5CDFB"></path>
<path d="M620.462 153.963H536.11C534.965 153.963 534.027 153.026 534.027 151.881C534.027 150.735 534.965 149.798 536.11 149.798H620.462C621.608 149.798 622.545 150.735 622.545 151.881C622.545 153.026 621.608 153.963 620.462 153.963Z" fill="#C4B6FF"></path>
<path d="M542.88 117.515H533.508C532.362 117.515 531.425 116.578 531.425 115.432C531.425 114.287 532.362 113.35 533.508 113.35H542.88C544.026 113.35 544.963 114.287 544.963 115.432C544.963 116.578 544.026 117.515 542.88 117.515Z" fill="#C4B6FF"></path>
<path d="M622.025 117.515H612.652C611.507 117.515 610.569 116.578 610.569 115.432C610.569 114.287 611.507 113.35 612.652 113.35H622.025C623.17 113.35 624.107 114.287 624.107 115.432C624.107 116.578 623.17 117.515 622.025 117.515Z" fill="#C4B6FF"></path>
<path d="M606.406 117.515H597.034C595.888 117.515 594.951 116.578 594.951 115.432C594.951 114.287 595.888 113.35 597.034 113.35H606.406C607.552 113.35 608.489 114.287 608.489 115.432C608.489 116.578 607.552 117.515 606.406 117.515Z" fill="#C4B6FF"></path>
<path d="M618.278 145.633H537.363C535.28 145.633 533.614 143.967 533.614 141.884V125.534C533.614 123.451 535.28 121.785 537.363 121.785H618.278C620.361 121.785 622.027 123.451 622.027 125.534V141.884C622.027 143.863 620.361 145.633 618.278 145.633Z" fill="#C4B6FF"></path>
<path d="M575.164 130.741V137.51C575.164 138.239 575.997 138.759 576.622 138.239L581.412 134.802C581.933 134.386 581.933 133.657 581.412 133.24L576.622 129.803C575.997 129.491 575.164 130.012 575.164 130.741Z" fill="#B5CDFB"></path>
<path d="M603.802 397.231H392.401C392.401 393.586 395.421 390.566 399.066 390.566H597.137C600.782 390.566 603.802 393.586 603.802 397.231Z" fill="#b153fd"></path>
<path d="M251.083 219.779C247.543 219.779 242.856 219.258 242.44 215.718C242.232 214.051 243.481 212.489 245.252 212.281C246.189 212.177 247.126 212.594 247.855 213.218C248.376 213.323 249.834 213.635 253.166 213.427C255.041 213.323 257.436 204.575 257.957 194.057H246.814C245.043 194.057 243.69 192.703 243.69 190.933C243.69 189.162 245.043 187.809 246.814 187.809H264.413V190.933C264.309 199.368 263.059 219.154 253.583 219.571C252.75 219.675 251.917 219.779 251.083 219.779ZM248.584 214.989C248.584 214.989 248.584 215.093 248.584 214.989C248.584 215.093 248.584 214.989 248.584 214.989Z" fill="#b153fd"></path>
<path d="M249.208 254.562C248.584 255.395 247.75 256.436 246.813 257.478C240.981 263.83 230.151 272.474 230.151 272.474L225.569 248.522L222.132 230.402C222.132 230.402 231.921 188.33 247.126 188.33C247.126 188.121 253.686 248.313 249.208 254.562Z" fill="#F2A007"></path>
<path d="M366.988 480.334C354.7 480.334 342.515 474.711 334.705 463.984L267.952 373.384C254.831 355.576 258.58 330.479 276.387 317.357C294.195 304.236 319.292 307.985 332.414 325.793L399.167 416.393C412.288 434.201 408.539 459.298 390.732 472.42C383.546 477.835 375.215 480.334 366.988 480.334Z" fill="#C4B6FF"></path>
<path d="M50.0948 452.737C34.9947 452.737 21.665 441.698 19.2698 426.286C16.5622 409.207 28.2257 393.274 45.3045 390.566L101.956 381.715C119.035 379.007 134.968 390.671 137.675 407.749C140.383 424.828 128.719 440.761 111.641 443.469L54.9893 452.321C53.3231 452.633 51.6569 452.737 50.0948 452.737Z" fill="#C4B6FF"></path>
<path d="M246.814 257.477L230.985 273.306L225.57 248.417L239.316 226.756L242.857 256.331L246.814 257.477Z" fill="#875300"></path>
<path d="M50.0958 452.737C41.7647 452.737 33.3295 450.134 26.1439 444.823C8.44038 431.597 4.69139 406.5 17.917 388.692L67.7993 321.835C81.0249 304.132 106.122 300.383 123.93 313.608C141.634 326.834 145.383 351.931 132.157 369.739L82.2746 436.596C74.3601 447.218 62.28 452.737 50.0958 452.737Z" fill="#C4B6FF"></path>
<path opacity="0.1" d="M50.0958 452.737C41.7647 452.737 33.3295 450.134 26.1439 444.823C8.44038 431.597 4.69139 406.5 17.917 388.692L67.7993 321.835C81.0249 304.132 106.122 300.383 123.93 313.608C141.738 326.834 145.383 351.931 132.157 369.739L82.2746 436.596C74.3601 447.218 62.28 452.737 50.0958 452.737Z" fill="#1E1E1E"></path>
<path d="M244.522 179.79C244.522 179.79 244.001 183.331 243.168 189.058C242.752 191.974 242.231 195.619 241.71 199.576C241.606 200.305 241.502 201.138 241.398 201.867C240.981 204.575 240.669 207.491 240.252 210.407C239.94 212.594 239.628 214.885 239.419 217.176C238.899 221.029 238.482 224.986 237.961 228.943C236.399 241.752 234.941 254.874 234.108 265.392C234.004 266.746 233.9 267.995 233.796 269.245C233.796 269.662 233.692 269.974 233.692 270.391C233.379 274.764 233.275 278.513 233.379 281.325C233.379 283.72 233.588 285.595 233.9 286.636C234.004 286.949 234.108 287.261 234.317 287.365C236.191 289.552 225.569 287.99 211.927 285.178C190.682 280.909 162.253 273.723 162.253 273.723L162.878 263.205L163.294 256.124L164.231 239.461L165.273 221.341L244.522 179.79Z" fill="#F2A007"></path>
<path d="M160.066 233.525C159.233 233.525 158.295 233.317 157.462 232.796C157.046 232.484 147.257 226.027 148.402 213.947C149.027 207.282 152.255 202.284 152.568 201.763C154.026 199.576 156.942 199.056 159.024 200.513C161.211 201.971 161.732 204.887 160.378 206.97C160.274 207.074 158.087 210.511 157.671 214.885C157.046 221.341 162.461 224.986 162.461 224.986C164.648 226.444 165.273 229.256 163.815 231.443C163.086 232.796 161.524 233.525 160.066 233.525Z" fill="#B5CDFB"></path>
<path d="M256.287 305.172L166.519 311.941H141.526L151.731 283.303L155.689 272.369L157.251 268.099C158.188 265.6 160.375 263.725 163.083 263.413C163.499 263.309 163.916 263.309 164.332 263.309L184.431 263.829L229.002 264.871H229.419H231.502C232.543 264.871 233.48 265.079 234.313 265.495C235.146 265.912 235.98 266.433 236.604 267.162C236.708 267.266 236.813 267.37 236.917 267.474C237.333 267.995 237.646 268.516 237.958 269.14L245.352 285.698L246.185 287.469L255.141 297.674L256.287 305.172Z" fill="#C4B6FF"></path>
<path opacity="0.18" d="M256.287 305.172L166.519 311.941H141.526L147.566 285.386C149.024 284.657 150.378 284.032 151.731 283.303L155.689 272.369L157.251 268.099C158.188 265.6 160.375 263.725 163.083 263.413C163.499 263.309 163.916 263.309 164.332 263.309C179.536 277.576 206.404 279.762 233.688 281.533L245.456 285.803L246.289 287.573L255.245 297.778L256.287 305.172Z" fill="#1E1E1E"></path>
<path d="M162.982 237.067C156.005 218.009 133.511 184.372 153.505 158.65C173.5 132.928 201.93 112.1 223.799 118.765C245.668 125.43 254.728 130.116 249.938 145.32C245.147 160.525 253.374 190.621 251.187 194.578C249 198.535 231.922 205.2 230.464 215.197C229.006 225.195 224.319 252.687 211.51 253.208C202.034 253.52 185.892 252.062 177.978 251.333C174.958 251.021 172.146 249.563 170.063 247.272C167.46 244.356 164.127 240.399 162.982 237.067Z" fill="#2E3C8C"></path>
<path d="M321.168 321.627L315.753 370.884L307.526 445.343L307.213 448.363L303.256 484.499L297.737 534.59V534.798H95.708L86.4397 382.548L82.6907 322.043C82.6907 306.11 150.797 283.824 151.735 283.304L212.031 285.386L234.004 286.74L245.98 287.469C260.872 299.445 321.168 303.819 321.168 321.627Z" fill="#C4B6FF"></path>
<path opacity="0.1" d="M307.422 445.239L307.109 448.259L303.152 484.395L297.633 534.486V534.694H95.708L86.4397 382.444L82.6907 322.043C82.6907 306.11 150.797 283.824 151.735 283.304L212.031 285.386L234.004 286.74L245.98 287.469C118.098 327.458 307.422 445.239 307.422 445.239Z" fill="#1E1E1E"></path>
<path opacity="0.1" d="M297.633 534.486L297.008 534.694L93.4175 432.326L99.9782 383.068C105.914 367.135 111.121 363.178 127.575 363.178H248.376C266.496 363.178 297.633 534.486 297.633 534.486Z" fill="#1E1E1E"></path>
<path d="M234.941 204.992C233.587 204.992 232.442 204.158 231.921 202.805C231.4 201.138 232.233 199.368 233.9 198.847L256.81 191.349C258.476 190.829 260.247 191.662 260.767 193.328C261.288 194.994 260.455 196.765 258.789 197.285L235.878 204.783C235.566 204.887 235.253 204.992 234.941 204.992Z" fill="#b153fd"></path>
<path d="M73.8394 566.873L104.664 387.443C107.58 375.987 117.057 367.969 127.991 367.969H248.792C259.727 367.969 269.307 375.987 272.119 387.443L311.275 566.873C226.298 588.534 168.293 581.349 73.8394 566.873Z" fill="#2E3C8C"></path>
<path d="M242.959 233.526C241.605 233.526 240.251 232.901 239.314 231.755C238.793 231.026 233.898 224.674 234.94 213.739C235.565 207.074 240.251 199.993 240.772 199.264C242.23 197.077 245.145 196.556 247.228 198.014C249.415 199.472 249.936 202.388 248.478 204.471C247.436 206.033 244.625 210.928 244.208 214.572C243.583 221.758 246.499 225.819 246.603 225.924C248.27 227.902 247.853 230.818 245.874 232.484C244.937 233.213 243.896 233.526 242.959 233.526Z" fill="#B5CDFB"></path>
<path d="M748.343 184.685H745.428C745.115 184.685 744.907 184.477 744.907 184.164C744.907 183.852 745.115 183.644 745.428 183.644H748.343C748.656 183.644 748.864 183.852 748.864 184.164C748.864 184.477 748.656 184.685 748.343 184.685ZM740.221 184.685H735.014C734.701 184.685 734.493 184.477 734.493 184.164C734.493 183.852 734.701 183.644 735.014 183.644H740.221C740.533 183.644 740.741 183.852 740.741 184.164C740.741 184.477 740.533 184.685 740.221 184.685ZM729.807 184.685H724.6C724.287 184.685 724.079 184.477 724.079 184.164C724.079 183.852 724.287 183.644 724.6 183.644H729.807C730.119 183.644 730.327 183.852 730.327 184.164C730.327 184.477 730.119 184.685 729.807 184.685ZM719.393 184.685H714.186C713.874 184.685 713.665 184.477 713.665 184.164C713.665 183.852 713.874 183.644 714.186 183.644H719.393C719.705 183.644 719.914 183.852 719.914 184.164C719.914 184.477 719.705 184.685 719.393 184.685ZM708.979 184.685H703.772C703.46 184.685 703.251 184.477 703.251 184.164C703.251 183.852 703.46 183.644 703.772 183.644H708.979C709.292 183.644 709.5 183.852 709.5 184.164C709.5 184.477 709.292 184.685 708.979 184.685ZM698.565 184.685H693.358C693.046 184.685 692.838 184.477 692.838 184.164C692.838 183.852 693.046 183.644 693.358 183.644H698.565C698.878 183.644 699.086 183.852 699.086 184.164C699.086 184.477 698.878 184.685 698.565 184.685ZM688.151 184.685H682.944C682.632 184.685 682.424 184.477 682.424 184.164C682.424 183.852 682.632 183.644 682.944 183.644H688.151C688.464 183.644 688.672 183.852 688.672 184.164C688.672 184.477 688.464 184.685 688.151 184.685ZM677.738 184.685H672.531C672.218 184.685 672.01 184.477 672.01 184.164C672.01 183.852 672.218 183.644 672.531 183.644H677.738C678.05 183.644 678.258 183.852 678.258 184.164C678.258 184.477 678.05 184.685 677.738 184.685ZM667.324 184.685H662.117C661.804 184.685 661.596 184.477 661.596 184.164C661.596 183.852 661.804 183.644 662.117 183.644H667.324C667.636 183.644 667.844 183.852 667.844 184.164C667.844 184.477 667.636 184.685 667.324 184.685ZM656.91 184.685H651.703C651.39 184.685 651.182 184.477 651.182 184.164C651.182 183.852 651.39 183.644 651.703 183.644H656.91C657.222 183.644 657.431 183.852 657.431 184.164C657.431 184.477 657.222 184.685 656.91 184.685ZM646.496 184.685H641.289C640.977 184.685 640.768 184.477 640.768 184.164C640.768 183.852 640.977 183.644 641.289 183.644H646.496C646.808 183.644 647.017 183.852 647.017 184.164C647.017 184.477 646.808 184.685 646.496 184.685ZM636.082 184.685H630.875C630.563 184.685 630.354 184.477 630.354 184.164C630.354 183.852 630.563 183.644 630.875 183.644H636.082C636.395 183.644 636.603 183.852 636.603 184.164C636.603 184.477 636.395 184.685 636.082 184.685ZM625.668 184.685H620.461C620.149 184.685 619.941 184.477 619.941 184.164C619.941 183.852 620.149 183.644 620.461 183.644H625.668C625.981 183.644 626.189 183.852 626.189 184.164C626.189 184.477 625.981 184.685 625.668 184.685ZM615.254 184.685H610.047C609.735 184.685 609.527 184.477 609.527 184.164C609.527 183.852 609.735 183.644 610.047 183.644H615.254C615.567 183.644 615.775 183.852 615.775 184.164C615.775 184.477 615.567 184.685 615.254 184.685ZM604.841 184.685H599.634C599.321 184.685 599.113 184.477 599.113 184.164C599.113 183.852 599.321 183.644 599.634 183.644H604.841C605.153 183.644 605.361 183.852 605.361 184.164C605.361 184.477 605.153 184.685 604.841 184.685ZM594.427 184.685H589.22C588.907 184.685 588.699 184.477 588.699 184.164C588.699 183.852 588.907 183.644 589.22 183.644H594.427C594.739 183.644 594.947 183.852 594.947 184.164C594.947 184.477 594.739 184.685 594.427 184.685ZM584.013 184.685H578.806C578.493 184.685 578.285 184.477 578.285 184.164C578.285 183.852 578.493 183.644 578.806 183.644H584.013C584.325 183.644 584.534 183.852 584.534 184.164C584.534 184.477 584.325 184.685 584.013 184.685ZM573.599 184.685H568.392C568.08 184.685 567.871 184.477 567.871 184.164C567.871 183.852 568.08 183.644 568.392 183.644H573.599C573.911 183.644 574.12 183.852 574.12 184.164C574.12 184.477 573.911 184.685 573.599 184.685ZM563.185 184.685H557.978C557.666 184.685 557.458 184.477 557.458 184.164C557.458 183.852 557.666 183.644 557.978 183.644H563.185C563.498 183.644 563.706 183.852 563.706 184.164C563.706 184.477 563.498 184.685 563.185 184.685ZM552.771 184.685H547.564C547.252 184.685 547.044 184.477 547.044 184.164C547.044 183.852 547.252 183.644 547.564 183.644H552.771C553.084 183.644 553.292 183.852 553.292 184.164C553.292 184.477 553.084 184.685 552.771 184.685ZM542.357 184.685H537.15C536.838 184.685 536.63 184.477 536.63 184.164C536.63 183.852 536.838 183.644 537.15 183.644H542.357C542.67 183.644 542.878 183.852 542.878 184.164C542.878 184.477 542.67 184.685 542.357 184.685ZM531.944 184.685H526.737C526.424 184.685 526.216 184.477 526.216 184.164C526.216 183.852 526.424 183.644 526.737 183.644H531.944C532.256 183.644 532.464 183.852 532.464 184.164C532.464 184.477 532.256 184.685 531.944 184.685ZM521.53 184.685H516.323C516.01 184.685 515.802 184.477 515.802 184.164C515.802 183.852 516.01 183.644 516.323 183.644H521.53C521.842 183.644 522.05 183.852 522.05 184.164C522.05 184.477 521.842 184.685 521.53 184.685ZM511.116 184.685H505.909C505.597 184.685 505.388 184.477 505.388 184.164C505.388 183.852 505.597 183.644 505.909 183.644H511.116C511.428 183.644 511.637 183.852 511.637 184.164C511.637 184.477 511.428 184.685 511.116 184.685ZM500.702 184.685H495.495C495.183 184.685 494.974 184.477 494.974 184.164C494.974 183.852 495.183 183.644 495.495 183.644H500.702C501.014 183.644 501.223 183.852 501.223 184.164C501.223 184.477 501.014 184.685 500.702 184.685ZM490.288 184.685H485.081C484.769 184.685 484.561 184.477 484.561 184.164C484.561 183.852 484.769 183.644 485.081 183.644H490.288C490.601 183.644 490.809 183.852 490.809 184.164C490.809 184.477 490.601 184.685 490.288 184.685ZM479.874 184.685H474.667C474.355 184.685 474.147 184.477 474.147 184.164C474.147 183.852 474.355 183.644 474.667 183.644H479.874C480.187 183.644 480.395 183.852 480.395 184.164C480.395 184.477 480.187 184.685 479.874 184.685ZM469.46 184.685H464.254C463.941 184.685 463.733 184.477 463.733 184.164C463.733 183.852 463.941 183.644 464.254 183.644H469.46C469.773 183.644 469.981 183.852 469.981 184.164C469.981 184.477 469.773 184.685 469.46 184.685ZM459.047 184.685H453.84C453.527 184.685 453.319 184.477 453.319 184.164C453.319 183.852 453.527 183.644 453.84 183.644H459.047C459.359 183.644 459.567 183.852 459.567 184.164C459.567 184.477 459.359 184.685 459.047 184.685ZM448.633 184.685H443.426C443.113 184.685 442.905 184.477 442.905 184.164C442.905 183.852 443.113 183.644 443.426 183.644H448.633C448.945 183.644 449.153 183.852 449.153 184.164C449.153 184.477 448.945 184.685 448.633 184.685ZM438.219 184.685H433.012C432.7 184.685 432.491 184.477 432.491 184.164C432.491 183.852 432.7 183.644 433.012 183.644H438.219C438.531 183.644 438.74 183.852 438.74 184.164C438.74 184.477 438.531 184.685 438.219 184.685ZM427.805 184.685H422.598C422.286 184.685 422.077 184.477 422.077 184.164C422.077 183.852 422.286 183.644 422.598 183.644H427.805C428.117 183.644 428.326 183.852 428.326 184.164C428.326 184.477 428.117 184.685 427.805 184.685ZM417.391 184.685H412.184C411.872 184.685 411.664 184.477 411.664 184.164C411.664 183.852 411.872 183.644 412.184 183.644H417.391C417.704 183.644 417.912 183.852 417.912 184.164C417.912 184.477 417.704 184.685 417.391 184.685ZM406.977 184.685H401.77C401.458 184.685 401.25 184.477 401.25 184.164C401.25 183.852 401.458 183.644 401.77 183.644H406.977C407.29 183.644 407.498 183.852 407.498 184.164C407.498 184.477 407.29 184.685 406.977 184.685ZM396.563 184.685H391.357C391.044 184.685 390.836 184.477 390.836 184.164C390.836 183.852 391.044 183.644 391.357 183.644H396.563C396.876 183.644 397.084 183.852 397.084 184.164C397.084 184.477 396.876 184.685 396.563 184.685ZM386.15 184.685H380.943C380.63 184.685 380.422 184.477 380.422 184.164C380.422 183.852 380.63 183.644 380.943 183.644H386.15C386.462 183.644 386.67 183.852 386.67 184.164C386.67 184.477 386.462 184.685 386.15 184.685ZM375.736 184.685H370.529C370.216 184.685 370.008 184.477 370.008 184.164C370.008 183.852 370.216 183.644 370.529 183.644H375.736C376.048 183.644 376.256 183.852 376.256 184.164C376.256 184.477 376.048 184.685 375.736 184.685ZM365.322 184.685H360.115C359.803 184.685 359.594 184.477 359.594 184.164C359.594 183.852 359.803 183.644 360.115 183.644H365.322C365.634 183.644 365.843 183.852 365.843 184.164C365.843 184.477 365.634 184.685 365.322 184.685ZM354.908 184.685H349.701C349.389 184.685 349.18 184.477 349.18 184.164C349.18 183.852 349.389 183.644 349.701 183.644H354.908C355.22 183.644 355.429 183.852 355.429 184.164C355.429 184.477 355.22 184.685 354.908 184.685ZM344.494 184.685H339.287C338.975 184.685 338.767 184.477 338.767 184.164C338.767 183.852 338.975 183.644 339.287 183.644H344.494C344.807 183.644 345.015 183.852 345.015 184.164C345.015 184.477 344.807 184.685 344.494 184.685Z" fill="#b153fd"></path>

<path d="M590.782 20.0414H585.575C585.263 20.0414 585.054 19.8331 585.054 19.5207C585.054 19.2083 585.263 19 585.575 19H590.782C591.094 19 591.303 19.2083 591.303 19.5207C591.303 19.8331 591.094 20.0414 590.782 20.0414ZM580.368 20.0414H575.161C574.849 20.0414 574.641 19.8331 574.641 19.5207C574.641 19.2083 574.849 19 575.161 19H580.368C580.681 19 580.889 19.2083 580.889 19.5207C580.889 19.8331 580.681 20.0414 580.368 20.0414ZM569.954 20.0414H564.747C564.435 20.0414 564.227 19.8331 564.227 19.5207C564.227 19.2083 564.435 19 564.747 19H569.954C570.267 19 570.475 19.2083 570.475 19.5207C570.475 19.8331 570.267 20.0414 569.954 20.0414ZM559.54 20.0414H554.333C554.021 20.0414 553.813 19.8331 553.813 19.5207C553.813 19.2083 554.021 19 554.333 19H559.54C559.853 19 560.061 19.2083 560.061 19.5207C560.061 19.8331 559.853 20.0414 559.54 20.0414ZM549.127 20.0414H543.92C543.607 20.0414 543.399 19.8331 543.399 19.5207C543.399 19.2083 543.607 19 543.92 19H549.127C549.439 19 549.647 19.2083 549.647 19.5207C549.647 19.8331 549.439 20.0414 549.127 20.0414ZM538.713 20.0414H533.506C533.193 20.0414 532.985 19.8331 532.985 19.5207C532.985 19.2083 533.193 19 533.506 19H538.713C539.025 19 539.233 19.2083 539.233 19.5207C539.233 19.8331 539.025 20.0414 538.713 20.0414ZM528.299 20.0414H523.092C522.78 20.0414 522.571 19.8331 522.571 19.5207C522.571 19.2083 522.78 19 523.092 19H528.299C528.611 19 528.82 19.2083 528.82 19.5207C528.82 19.8331 528.611 20.0414 528.299 20.0414ZM517.885 20.0414H512.678C512.366 20.0414 512.157 19.8331 512.157 19.5207C512.157 19.2083 512.366 19 512.678 19H517.885C518.197 19 518.406 19.2083 518.406 19.5207C518.406 19.8331 518.197 20.0414 517.885 20.0414ZM507.471 20.0414H502.264C501.952 20.0414 501.744 19.8331 501.744 19.5207C501.744 19.2083 501.952 19 502.264 19H507.471C507.784 19 507.992 19.2083 507.992 19.5207C507.992 19.8331 507.784 20.0414 507.471 20.0414ZM497.057 20.0414H491.85C491.538 20.0414 491.33 19.8331 491.33 19.5207C491.33 19.2083 491.538 19 491.85 19H497.057C497.37 19 497.578 19.2083 497.578 19.5207C497.578 19.8331 497.37 20.0414 497.057 20.0414ZM486.643 20.0414H481.437C481.124 20.0414 480.916 19.8331 480.916 19.5207C480.916 19.2083 481.124 19 481.437 19H486.643C486.956 19 487.164 19.2083 487.164 19.5207C487.164 19.8331 486.956 20.0414 486.643 20.0414ZM476.23 20.0414H471.023C470.71 20.0414 470.502 19.8331 470.502 19.5207C470.502 19.2083 470.71 19 471.023 19H476.23C476.542 19 476.75 19.2083 476.75 19.5207C476.75 19.8331 476.542 20.0414 476.23 20.0414ZM465.816 20.0414H460.609C460.296 20.0414 460.088 19.8331 460.088 19.5207C460.088 19.2083 460.296 19 460.609 19H465.816C466.128 19 466.336 19.2083 466.336 19.5207C466.336 19.8331 466.128 20.0414 465.816 20.0414ZM455.402 20.0414H450.195C449.883 20.0414 449.674 19.8331 449.674 19.5207C449.674 19.2083 449.883 19 450.195 19H455.402C455.714 19 455.923 19.2083 455.923 19.5207C455.923 19.8331 455.714 20.0414 455.402 20.0414ZM444.988 20.0414H439.781C439.469 20.0414 439.26 19.8331 439.26 19.5207C439.26 19.2083 439.469 19 439.781 19H444.988C445.3 19 445.509 19.2083 445.509 19.5207C445.509 19.8331 445.3 20.0414 444.988 20.0414ZM434.574 20.0414H429.367C429.055 20.0414 428.847 19.8331 428.847 19.5207C428.847 19.2083 429.055 19 429.367 19H434.574C434.887 19 435.095 19.2083 435.095 19.5207C435.095 19.8331 434.887 20.0414 434.574 20.0414ZM424.16 20.0414H418.953C418.641 20.0414 418.433 19.8331 418.433 19.5207C418.433 19.2083 418.641 19 418.953 19H424.16C424.473 19 424.681 19.2083 424.681 19.5207C424.681 19.8331 424.473 20.0414 424.16 20.0414ZM413.747 20.0414H408.54C408.227 20.0414 408.019 19.8331 408.019 19.5207C408.019 19.2083 408.227 19 408.54 19H413.747C414.059 19 414.267 19.2083 414.267 19.5207C414.267 19.8331 414.059 20.0414 413.747 20.0414ZM403.333 20.0414H398.126C397.813 20.0414 397.605 19.8331 397.605 19.5207C397.605 19.2083 397.813 19 398.126 19H403.333C403.645 19 403.853 19.2083 403.853 19.5207C403.853 19.8331 403.645 20.0414 403.333 20.0414ZM392.919 20.0414H387.712C387.399 20.0414 387.191 19.8331 387.191 19.5207C387.191 19.2083 387.399 19 387.712 19H392.919C393.231 19 393.439 19.2083 393.439 19.5207C393.439 19.8331 393.231 20.0414 392.919 20.0414ZM382.505 20.0414H377.298C376.986 20.0414 376.777 19.8331 376.777 19.5207C376.777 19.2083 376.986 19 377.298 19H382.505C382.817 19 383.026 19.2083 383.026 19.5207C383.026 19.8331 382.817 20.0414 382.505 20.0414ZM372.091 20.0414H366.884C366.572 20.0414 366.363 19.8331 366.363 19.5207C366.363 19.2083 366.572 19 366.884 19H372.091C372.404 19 372.612 19.2083 372.612 19.5207C372.612 19.8331 372.404 20.0414 372.091 20.0414ZM361.677 20.0414H356.47C356.158 20.0414 355.95 19.8331 355.95 19.5207C355.95 19.2083 356.158 19 356.47 19H361.677C361.99 19 362.198 19.2083 362.198 19.5207C362.198 19.8331 361.99 20.0414 361.677 20.0414ZM351.263 20.0414H346.056C345.744 20.0414 345.536 19.8331 345.536 19.5207C345.536 19.2083 345.744 19 346.056 19H351.263C351.576 19 351.784 19.2083 351.784 19.5207C351.784 19.8331 351.576 20.0414 351.263 20.0414ZM340.85 20.0414H335.643C335.33 20.0414 335.122 19.8331 335.122 19.5207C335.122 19.2083 335.33 19 335.643 19H340.85C341.162 19 341.37 19.2083 341.37 19.5207C341.37 19.8331 341.162 20.0414 340.85 20.0414ZM330.436 20.0414H325.229C324.916 20.0414 324.708 19.8331 324.708 19.5207C324.708 19.2083 324.916 19 325.229 19H330.436C330.748 19 330.956 19.2083 330.956 19.5207C330.956 19.8331 330.748 20.0414 330.436 20.0414ZM320.022 20.0414H314.815C314.502 20.0414 314.294 19.8331 314.294 19.5207C314.294 19.2083 314.502 19 314.815 19H320.022C320.334 19 320.543 19.2083 320.543 19.5207C320.543 19.8331 320.334 20.0414 320.022 20.0414ZM309.608 20.0414H304.401C304.089 20.0414 303.88 19.8331 303.88 19.5207C303.88 19.2083 304.089 19 304.401 19H309.608C309.92 19 310.129 19.2083 310.129 19.5207C310.129 19.8331 309.92 20.0414 309.608 20.0414ZM299.194 20.0414H293.987C293.675 20.0414 293.466 19.8331 293.466 19.5207C293.466 19.2083 293.675 19 293.987 19H299.194C299.507 19 299.715 19.2083 299.715 19.5207C299.715 19.8331 299.507 20.0414 299.194 20.0414ZM288.78 20.0414H283.573C283.261 20.0414 283.053 19.8331 283.053 19.5207C283.053 19.2083 283.261 19 283.573 19H288.78C289.093 19 289.301 19.2083 289.301 19.5207C289.301 19.8331 289.093 20.0414 288.78 20.0414ZM278.366 20.0414H273.159C272.847 20.0414 272.639 19.8331 272.639 19.5207C272.639 19.2083 272.847 19 273.159 19H278.366C278.679 19 278.887 19.2083 278.887 19.5207C278.887 19.8331 278.679 20.0414 278.366 20.0414ZM267.953 20.0414H262.746C262.433 20.0414 262.225 19.8331 262.225 19.5207C262.225 19.2083 262.433 19 262.746 19H267.953C268.265 19 268.473 19.2083 268.473 19.5207C268.473 19.8331 268.265 20.0414 267.953 20.0414ZM257.539 20.0414H252.332C252.019 20.0414 251.811 19.8331 251.811 19.5207C251.811 19.2083 252.019 19 252.332 19H257.539C257.851 19 258.059 19.2083 258.059 19.5207C258.059 19.8331 257.851 20.0414 257.539 20.0414ZM247.125 20.0414H241.918C241.605 20.0414 241.397 19.8331 241.397 19.5207C241.397 19.2083 241.605 19 241.918 19H247.125C247.437 19 247.646 19.2083 247.646 19.5207C247.646 19.8331 247.437 20.0414 247.125 20.0414Z" fill="#C4B6FF"></path>
<path d="M720.855 209.469H715.023V215.301H720.855V209.469Z" fill="#C4B6FF"></path>
<path d="M726.686 215.405H720.854V221.237H726.686V215.405Z" fill="#C4B6FF"></path>
<path d="M732.518 221.236H726.686V227.068H732.518V221.236Z" fill="#C4B6FF"></path>
<path d="M738.453 227.068H732.622V232.9H738.453V227.068Z" fill="#C4B6FF"></path>
<path d="M726.686 203.638H720.854V209.469H726.686V203.638Z" fill="#C4B6FF"></path>
<path d="M732.521 209.469H726.69V215.301H732.521V209.469Z" fill="#C4B6FF"></path>
<path d="M738.457 215.405H732.625V221.237H738.457V215.405Z" fill="#C4B6FF"></path>
<path d="M744.284 221.237H738.453V227.069H744.284V221.237Z" fill="#C4B6FF"></path>
<path d="M688.571 344.433H580.371C579.226 344.433 578.288 343.496 578.288 342.35C578.288 341.205 579.226 340.268 580.371 340.268H688.571C689.717 340.268 690.654 341.205 690.654 342.35C690.654 343.496 689.717 344.433 688.571 344.433Z" fill="#B5CDFB"></path>
<path d="M633.69 363.49C630.357 363.49 627.65 360.783 627.65 357.45C627.65 354.118 630.357 351.41 633.69 351.41C637.022 351.41 639.73 354.118 639.73 357.45C639.73 360.783 637.022 363.49 633.69 363.49ZM633.69 352.556C630.982 352.556 628.691 354.743 628.691 357.554C628.691 360.366 630.878 362.553 633.69 362.553C636.501 362.553 638.688 360.366 638.688 357.554C638.688 354.743 636.501 352.556 633.69 352.556Z" fill="#C4B6FF"></path>
<path d="M649.101 362.969C652.092 362.969 654.516 360.545 654.516 357.554C654.516 354.563 652.092 352.139 649.101 352.139C646.11 352.139 643.686 354.563 643.686 357.554C643.686 360.545 646.11 362.969 649.101 362.969Z" fill="#C4B6FF"></path>
<path d="M702.736 292.468C705.726 292.468 708.151 290.044 708.151 287.053C708.151 284.062 705.726 281.638 702.736 281.638C699.745 281.638 697.32 284.062 697.32 287.053C697.32 290.044 699.745 292.468 702.736 292.468Z" fill="#C4B6FF"></path>
<path d="M136.742 201.243H47.0786C45.9331 201.243 44.9958 200.305 44.9958 199.16C44.9958 198.014 45.9331 197.077 47.0786 197.077H136.742C137.887 197.077 138.825 198.014 138.825 199.16C138.825 200.305 137.887 201.243 136.742 201.243Z" fill="#B5CDFB"></path>
<path d="M41.5581 220.3C38.2257 220.3 35.5181 217.592 35.5181 214.26C35.5181 210.927 38.2257 208.22 41.5581 208.22C44.8905 208.22 47.5981 210.927 47.5981 214.26C47.5981 217.592 44.8905 220.3 41.5581 220.3ZM41.5581 209.365C38.8505 209.365 36.5595 211.552 36.5595 214.364C36.5595 217.176 38.7464 219.363 41.5581 219.363C44.3698 219.363 46.5568 217.176 46.5568 214.364C46.5568 211.552 44.3698 209.365 41.5581 209.365Z" fill="#1A224F"></path>
<path d="M56.9694 219.779C59.9601 219.779 62.3846 217.354 62.3846 214.363C62.3846 211.373 59.9601 208.948 56.9694 208.948C53.9787 208.948 51.5542 211.373 51.5542 214.363C51.5542 217.354 53.9787 219.779 56.9694 219.779Z" fill="#C4B6FF"></path>
<path d="M72.1742 219.779C75.165 219.779 77.5894 217.354 77.5894 214.363C77.5894 211.373 75.165 208.948 72.1742 208.948C69.1835 208.948 66.759 211.373 66.759 214.363C66.759 217.354 69.1835 219.779 72.1742 219.779Z" fill="#b153fd"></path>
<path d="M440.823 443.676C440.823 436.699 449.154 431.18 459.568 431.18C469.877 431.18 478.313 436.803 478.313 443.676" fill="#C4B6FF"></path>
<path d="M280.452 270.911C280.14 270.911 279.931 270.703 279.931 270.391V192.391C279.931 192.078 280.14 191.87 280.452 191.87C280.765 191.87 280.973 192.078 280.973 192.391V270.391C280.973 270.703 280.765 270.911 280.452 270.911Z" fill="#2E3C8C"></path>
<path d="M273.476 284.97C273.164 284.97 272.956 284.762 272.956 284.449V206.449C272.956 206.137 273.164 205.929 273.476 205.929C273.789 205.929 273.997 206.137 273.997 206.449V284.449C273.997 284.762 273.685 284.97 273.476 284.97Z" fill="#2E3C8C"></path>
<path d="M478.733 339.33H400.733C400.421 339.33 400.212 339.122 400.212 338.81C400.212 338.497 400.421 338.289 400.733 338.289H478.733C479.045 338.289 479.254 338.497 479.254 338.81C479.254 339.122 479.045 339.33 478.733 339.33Z" fill="#b153fd"></path>
<path d="M492.893 346.411H401.251C400.939 346.411 400.73 346.202 400.73 345.89C400.73 345.577 400.939 345.369 401.251 345.369H492.893C493.205 345.369 493.414 345.577 493.414 345.89C493.414 346.202 493.101 346.411 492.893 346.411Z" fill="#b153fd"></path>
<path d="M83.8387 250.604H52.2847C49.7854 250.604 47.7026 248.521 47.7026 246.022C47.7026 243.522 49.7854 241.439 52.2847 241.439H83.8387C86.338 241.439 88.4208 243.522 88.4208 246.022C88.4208 248.521 86.338 250.604 83.8387 250.604ZM52.2847 242.481C50.3061 242.481 48.744 244.043 48.744 246.022C48.744 248 50.3061 249.562 52.2847 249.562H83.8387C85.8173 249.562 87.3794 248 87.3794 246.022C87.3794 244.043 85.8173 242.481 83.8387 242.481H52.2847Z" fill="#B5CDFB"></path>
<path d="M106.333 268.933H74.7789C72.2795 268.933 70.1968 266.85 70.1968 264.351C70.1968 261.851 72.2795 259.769 74.7789 259.769H106.333C108.832 259.769 110.915 261.851 110.915 264.351C110.811 266.85 108.832 268.933 106.333 268.933ZM74.7789 260.914C72.8002 260.914 71.2382 262.476 71.2382 264.455C71.2382 266.433 72.8002 267.996 74.7789 267.996H106.333C108.311 267.996 109.874 266.433 109.874 264.455C109.874 262.476 108.311 260.914 106.333 260.914H74.7789Z" fill="#B5CDFB"></path>
<path d="M106.333 280.908H74.7789C72.2795 280.908 70.1968 278.826 70.1968 276.326C70.1968 273.827 72.2795 271.744 74.7789 271.744H106.333C108.832 271.744 110.915 273.827 110.915 276.326C110.811 278.93 108.832 280.908 106.333 280.908ZM74.7789 272.89C72.8002 272.89 71.2382 274.452 71.2382 276.43C71.2382 278.409 72.8002 279.971 74.7789 279.971H106.333C108.311 279.971 109.874 278.409 109.874 276.43C109.874 274.452 108.311 272.89 106.333 272.89H74.7789Z" fill="#B5CDFB"></path>
<path d="M106.333 292.988H74.7789C72.2795 292.988 70.1968 290.906 70.1968 288.406C70.1968 285.907 72.2795 283.824 74.7789 283.824H106.333C108.832 283.824 110.915 285.907 110.915 288.406C110.915 290.906 108.832 292.988 106.333 292.988ZM74.7789 284.866C72.8002 284.866 71.2382 286.428 71.2382 288.406C71.2382 290.385 72.8002 291.947 74.7789 291.947H106.333C108.311 291.947 109.874 290.385 109.874 288.406C109.874 286.428 108.311 284.866 106.333 284.866H74.7789Z" fill="#B5CDFB"></path>
<path d="M129.659 250.084H98.1054C95.9184 250.084 94.0439 248.313 94.0439 246.022C94.0439 243.835 95.8143 241.961 98.1054 241.961H129.659C131.846 241.961 133.721 243.731 133.721 246.022C133.721 248.209 131.95 250.084 129.659 250.084Z" fill="#b153fd"></path>
<path d="M62.9063 267.787C64.8043 267.787 66.3429 266.249 66.3429 264.351C66.3429 262.453 64.8043 260.914 62.9063 260.914C61.0083 260.914 59.4697 262.453 59.4697 264.351C59.4697 266.249 61.0083 267.787 62.9063 267.787Z" fill="#b153fd"></path>
<path d="M62.9063 279.866C64.8043 279.866 66.3429 278.328 66.3429 276.43C66.3429 274.532 64.8043 272.993 62.9063 272.993C61.0083 272.993 59.4697 274.532 59.4697 276.43C59.4697 278.328 61.0083 279.866 62.9063 279.866Z" fill="#b153fd"></path>
<path d="M62.9063 291.843C64.8043 291.843 66.3429 290.304 66.3429 288.406C66.3429 286.508 64.8043 284.97 62.9063 284.97C61.0083 284.97 59.4697 286.508 59.4697 288.406C59.4697 290.304 61.0083 291.843 62.9063 291.843Z" fill="#b153fd"></path>
<path d="M728.562 81.3796H697.008C694.821 81.3796 692.947 79.6093 692.947 77.3182C692.947 75.1313 694.717 73.2568 697.008 73.2568H728.562C730.749 73.2568 732.624 75.0272 732.624 77.3182C732.624 79.5051 730.749 81.3796 728.562 81.3796Z" fill="#C4B6FF"></path>
<path d="M728.562 93.3552H697.008C694.821 93.3552 692.947 91.5849 692.947 89.2938C692.947 87.1069 694.717 85.2324 697.008 85.2324H728.562C730.749 85.2324 732.624 87.0028 732.624 89.2938C732.624 91.5849 730.749 93.3552 728.562 93.3552Z" fill="#b153fd"></path>
<path d="M728.562 105.435H697.008C694.821 105.435 692.947 103.665 692.947 101.374C692.947 99.187 694.717 97.3125 697.008 97.3125H728.562C730.749 97.3125 732.624 99.0829 732.624 101.374C732.624 103.561 730.749 105.435 728.562 105.435Z" fill="#B5CDFB"></path>
<path d="M685.134 80.755C687.032 80.755 688.571 79.2164 688.571 77.3184C688.571 75.4204 687.032 73.8818 685.134 73.8818C683.236 73.8818 681.698 75.4204 681.698 77.3184C681.698 79.2164 683.236 80.755 685.134 80.755Z" fill="#b153fd"></path>
<path d="M685.134 92.8341C687.032 92.8341 688.571 91.2955 688.571 89.3975C688.571 87.4995 687.032 85.9609 685.134 85.9609C683.236 85.9609 681.698 87.4995 681.698 89.3975C681.698 91.2955 683.236 92.8341 685.134 92.8341Z" fill="#b153fd"></path>
<path d="M685.134 104.81C687.032 104.81 688.571 103.271 688.571 101.373C688.571 99.4751 687.032 97.9365 685.134 97.9365C683.236 97.9365 681.698 99.4751 681.698 101.373C681.698 103.271 683.236 104.81 685.134 104.81Z" fill="#b153fd"></path>
<path d="M672.014 56.6983C671.701 56.6983 671.493 56.49 671.493 56.1776C671.493 55.8652 671.701 55.6569 672.014 55.6569H677.221C677.533 55.6569 677.741 55.8652 677.741 56.1776C677.741 56.49 677.533 56.6983 677.221 56.6983H672.014ZM682.428 56.6983C682.115 56.6983 681.907 56.49 681.907 56.1776C681.907 55.8652 682.115 55.6569 682.428 55.6569H687.635C687.947 55.6569 688.155 55.8652 688.155 56.1776C688.155 56.49 687.947 56.6983 687.635 56.6983H682.428ZM692.842 56.6983C692.529 56.6983 692.321 56.49 692.321 56.1776C692.321 55.8652 692.529 55.6569 692.842 55.6569H698.048C698.361 55.6569 698.569 55.8652 698.569 56.1776C698.569 56.49 698.361 56.6983 698.048 56.6983H692.842ZM703.255 56.5941C702.943 56.5941 702.735 56.3858 702.735 56.0734C702.735 55.761 702.943 55.5527 703.255 55.5527H708.462C708.775 55.5527 708.983 55.761 708.983 56.0734C708.983 56.3858 708.775 56.5941 708.462 56.5941H703.255ZM713.669 56.5941C713.357 56.5941 713.149 56.3858 713.149 56.0734C713.149 55.761 713.357 55.5527 713.669 55.5527H718.876C719.189 55.5527 719.397 55.761 719.397 56.0734C719.397 56.3858 719.189 56.5941 718.876 56.5941H713.669Z" fill="#C4B6FF"></path>
<path d="M672.014 62.4258C671.701 62.4258 671.493 62.2175 671.493 61.9051C671.493 61.5927 671.701 61.3844 672.014 61.3844L719.918 61.2803C720.23 61.2803 720.438 61.4886 720.438 61.801C720.438 62.1134 720.23 62.3217 719.918 62.3217L672.014 62.4258Z" fill="#2E3C8C"></path>
<path d="M672.014 119.286C671.701 119.286 671.493 119.077 671.493 118.765C671.493 118.452 671.701 118.244 672.014 118.244H677.221C677.533 118.244 677.741 118.452 677.741 118.765C677.741 119.077 677.533 119.286 677.221 119.286H672.014ZM682.428 119.286C682.115 119.286 681.907 119.077 681.907 118.765C681.907 118.452 682.115 118.244 682.428 118.244H687.635C687.947 118.244 688.155 118.452 688.155 118.765C688.155 119.077 687.947 119.286 687.635 119.286H682.428ZM692.842 119.286C692.529 119.286 692.321 119.077 692.321 118.765C692.321 118.452 692.529 118.244 692.842 118.244H698.048C698.361 118.244 698.569 118.452 698.569 118.765C698.569 119.077 698.361 119.286 698.048 119.286H692.842ZM703.255 119.286C702.943 119.286 702.735 119.077 702.735 118.765C702.735 118.452 702.943 118.244 703.255 118.244H708.462C708.775 118.244 708.983 118.452 708.983 118.765C708.983 119.077 708.775 119.286 708.462 119.286H703.255ZM713.669 119.286C713.357 119.286 713.149 119.077 713.149 118.765C713.149 118.452 713.357 118.244 713.669 118.244H718.876C719.189 118.244 719.397 118.452 719.397 118.765C719.397 119.077 719.189 119.286 718.876 119.286H713.669Z" fill="#C4B6FF"></path>
<path d="M672.014 125.014C671.701 125.014 671.493 124.805 671.493 124.493C671.493 124.181 671.701 123.972 672.014 123.972L719.918 123.868C720.23 123.868 720.438 124.076 720.438 124.389C720.438 124.701 720.23 124.91 719.918 124.91L672.014 125.014Z" fill="#2E3C8C"></path>
<path d="M376.777 362.45C376.465 362.45 376.257 362.242 376.257 361.929C376.257 361.617 376.465 361.409 376.777 361.409H381.984C382.297 361.409 382.505 361.617 382.505 361.929C382.505 362.242 382.297 362.45 381.984 362.45H376.777ZM387.191 362.346C386.879 362.346 386.67 362.138 386.67 361.825C386.67 361.513 386.879 361.305 387.191 361.305H392.398C392.71 361.305 392.919 361.513 392.919 361.825C392.919 362.138 392.71 362.346 392.398 362.346H387.191ZM397.605 362.346C397.293 362.346 397.084 362.138 397.084 361.825C397.084 361.513 397.293 361.305 397.605 361.305H402.812C403.124 361.305 403.333 361.513 403.333 361.825C403.333 362.138 403.124 362.346 402.812 362.346H397.605ZM408.019 362.346C407.706 362.346 407.498 362.138 407.498 361.825C407.498 361.513 407.706 361.305 408.019 361.305H413.226C413.538 361.305 413.746 361.513 413.746 361.825C413.746 362.138 413.538 362.346 413.226 362.346H408.019ZM418.433 362.346C418.12 362.346 417.912 362.138 417.912 361.825C417.912 361.513 418.12 361.305 418.433 361.305H423.64C423.952 361.305 424.16 361.513 424.16 361.825C424.16 362.138 423.952 362.346 423.64 362.346H418.433Z" fill="#C4B6FF"></path>
<path d="M376.777 368.177C376.465 368.177 376.257 367.968 376.257 367.656C376.257 367.344 376.465 367.135 376.777 367.135L424.681 367.031C424.993 367.031 425.202 367.24 425.202 367.552C425.202 367.864 424.993 368.073 424.681 368.073L376.777 368.177Z" fill="#b153fd"></path>
<path d="M762.094 358.074H664.308V357.033H762.094C764.906 357.033 767.197 354.742 767.197 351.93V292.675C767.197 289.864 764.906 287.573 762.094 287.573H707.213V286.531H762.094C765.531 286.531 768.239 289.239 768.239 292.675V351.93C768.239 355.263 765.427 358.074 762.094 358.074Z" fill="#C4B6FF"></path>
<path d="M664.31 362.969C667.3 362.969 669.725 360.545 669.725 357.554C669.725 354.563 667.3 352.139 664.31 352.139C661.319 352.139 658.895 354.563 658.895 357.554C658.895 360.545 661.319 362.969 664.31 362.969Z" fill="#b153fd"></path>
<path d="M677.427 375.155H632.439C632.127 375.155 631.919 374.946 631.919 374.634C631.919 374.322 632.127 374.113 632.439 374.113H677.427C677.74 374.113 677.948 374.322 677.948 374.634C677.948 374.946 677.74 375.155 677.427 375.155Z" fill="#C4B6FF"></path>
<path d="M677.427 380.672H632.439C632.127 380.672 631.919 380.464 631.919 380.152C631.919 379.839 632.127 379.631 632.439 379.631H677.427C677.74 379.631 677.948 379.839 677.948 380.152C677.948 380.464 677.74 380.672 677.427 380.672Z" fill="#C4B6FF"></path>
<path d="M731.998 375.155H687.01C686.697 375.155 686.489 374.946 686.489 374.634C686.489 374.322 686.697 374.113 687.01 374.113H731.998C732.31 374.113 732.518 374.322 732.518 374.634C732.518 374.946 732.31 375.155 731.998 375.155Z" fill="#C4B6FF"></path>
<path d="M731.998 380.672H687.01C686.697 380.672 686.489 380.464 686.489 380.152C686.489 379.839 686.697 379.631 687.01 379.631H731.998C732.31 379.631 732.518 379.839 732.518 380.152C732.518 380.464 732.31 380.672 731.998 380.672Z" fill="#C4B6FF"></path>
<path d="M786.564 375.155H741.576C741.263 375.155 741.055 374.946 741.055 374.634C741.055 374.322 741.263 374.113 741.576 374.113H786.564C786.876 374.113 787.084 374.322 787.084 374.634C787.084 374.946 786.876 375.155 786.564 375.155Z" fill="#C4B6FF"></path>
<path d="M786.564 380.672H741.576C741.263 380.672 741.055 380.464 741.055 380.152C741.055 379.839 741.263 379.631 741.576 379.631H786.564C786.876 379.631 787.084 379.839 787.084 380.152C787.084 380.464 786.876 380.672 786.564 380.672Z" fill="#C4B6FF"></path>
<path opacity="0.25" d="M756.365 321.419H743.66C741.577 321.419 739.911 319.753 739.911 317.67V310.589C739.911 308.506 741.577 306.84 743.66 306.84H756.365C758.447 306.84 760.113 308.506 760.113 310.589V317.566C760.113 319.649 758.447 321.419 756.365 321.419Z" fill="#CCCCCC"></path>
<path opacity="0.25" d="M780.525 321.419H767.82C765.738 321.419 764.071 319.753 764.071 317.67V310.589C764.071 308.506 765.738 306.84 767.82 306.84H780.525C782.608 306.84 784.274 308.506 784.274 310.589V317.566C784.378 319.649 782.608 321.419 780.525 321.419Z" fill="#CCCCCC"></path>
<path opacity="0.25" d="M729.706 254.249H717.001C714.918 254.249 713.252 252.582 713.252 250.5V243.522C713.252 241.44 714.918 239.773 717.001 239.773H729.706C731.789 239.773 733.455 241.44 733.455 243.522V250.5C733.559 252.582 731.893 254.249 729.706 254.249Z" fill="#CCCCCC"></path>
<path opacity="0.25" d="M753.971 254.249H741.266C739.183 254.249 737.517 252.582 737.517 250.5V243.522C737.517 241.44 739.183 239.773 741.266 239.773H753.971C756.054 239.773 757.72 241.44 757.72 243.522V250.5C757.824 252.582 756.054 254.249 753.971 254.249Z" fill="#CCCCCC"></path>
<path opacity="0.25" d="M757.72 347.245H746.786C744.182 347.245 742.099 345.163 742.099 342.559V329.854C742.099 327.251 744.182 325.168 746.786 325.168H757.72C760.324 325.168 762.406 327.251 762.406 329.854V342.559C762.302 345.163 760.219 347.245 757.72 347.245Z" fill="#CCCCCC"></path>
<path opacity="0.25" d="M781.877 347.245H770.942C768.339 347.245 766.256 345.163 766.256 342.559V329.854C766.256 327.251 768.339 325.168 770.942 325.168H781.877C784.48 325.168 786.563 327.251 786.563 329.854V342.559C786.563 345.163 784.48 347.245 781.877 347.245Z" fill="#CCCCCC"></path>
</svg>