<svg width="181" height="167" viewBox="0 0 181 167" fill="none" xmlns="http://www.w3.org/2000/svg">
    <path d="M85.8112 2.48907C88.7433 0.932554 92.2567 0.93255 95.1888 2.48907L163.564 38.7862C166.832 40.5211 168.875 43.9188 168.875 47.6189V118.804C168.875 122.504 166.832 125.902 163.564 127.637L95.1888 163.934C92.2567 165.49 88.7433 165.49 85.8112 163.934L17.4359 127.637C14.1678 125.902 12.1247 122.504 12.1247 118.804V47.6189C12.1247 43.9188 14.1678 40.5211 17.4359 38.7863L85.8112 2.48907Z" fill="#B153FD"/>
    <path d="M82.3514 18.1917C86.6965 15.9267 91.874 15.9267 96.2191 18.1918L135.398 38.6156C140.355 41.1998 143.464 46.3264 143.464 51.9168V90.2107C143.464 95.8011 140.355 100.928 135.398 103.512L96.2191 123.936C91.874 126.201 86.6965 126.201 82.3514 123.936L43.1725 103.512C38.2152 100.928 35.1064 95.8011 35.1064 90.2107V51.9168C35.1064 46.3264 38.2152 41.1998 43.1725 38.6156L82.3514 18.1917Z" fill="#DCAFFF"/>
    <path d="M92.3805 147.438C91.1745 147.927 89.8251 147.927 88.6192 147.438L40.5668 127.931C36.4076 126.243 36.4076 120.354 40.5668 118.666L88.6192 99.1594C89.8251 98.6698 91.1745 98.6698 92.3805 99.1594L140.433 118.666C144.592 120.354 144.592 126.243 140.433 127.931L92.3805 147.438Z" fill="#7D4EA4" fill-opacity="0.5"/>
    <path d="M37.7952 100.611C36.2106 99.7288 35.2283 98.0572 35.2283 96.2434L35.2283 44.1502C35.2283 42.2976 36.2526 40.5969 37.8901 39.7306L84.8567 14.8826C88.2161 13.1052 92.2519 15.5777 92.1943 19.3779L90.6459 121.618C90.5886 125.399 86.5169 127.75 83.2134 125.91L37.7952 100.611Z" fill="#C091E6" fill-opacity="0.5"/>
</svg>