<svg viewBox="0 0 800 600" fill="none" xmlns="http://www.w3.org/2000/svg" datareactroot="">
    <path opacity="0.29" d="M59.0927 535.034H787.22C787.22 535.034 809.063 398.04 730.281 393.798C651.498 389.557 631.034 407.265 631.034 407.265C631.034 407.265 791.568 204.212 695.29 178.022C599.012 151.832 521.608 262.106 521.608 262.106C521.608 262.106 508.46 130.625 409.001 130.625C253.769 130.625 221.005 293.279 221.005 293.279C221.005 293.279 228.321 126.808 130.559 241.853C32.7966 356.899 -5.05717 473.323 59.0927 535.034Z" fill="#C4B6FF"></path>
    <path d="M144.766 563.027H32.6892C32.053 563.027 31.6289 562.603 31.6289 561.967C31.6289 561.33 32.053 560.906 32.6892 560.906H144.766C145.402 560.906 145.826 561.33 145.826 561.967C145.826 562.603 145.402 563.027 144.766 563.027Z" fill="#C1EDF5"></path>
    <path opacity="0.42" d="M164.49 323.923V335.905C164.49 338.556 162.37 340.57 159.825 340.57H45.4154C42.7646 340.57 40.75 338.45 40.75 335.905V323.923C40.75 321.272 42.8707 319.258 45.4154 319.258H159.719C162.37 319.152 164.49 321.272 164.49 323.923Z" fill="#C4B6FF"></path>
    <path opacity="0.42" d="M137.346 366.654V378.635C137.346 381.286 135.226 383.301 132.681 383.301H18.3774C15.7265 383.301 13.7119 381.18 13.7119 378.635V366.654C13.7119 364.003 15.8326 361.988 18.3774 361.988H132.681C135.226 361.988 137.346 364.109 137.346 366.654Z" fill="#C4B6FF"></path>
    <path opacity="0.42" d="M56.3352 357.217V345.236C56.3352 342.585 58.4559 340.57 61.0006 340.57H217.823C220.474 340.57 222.489 342.691 222.489 345.236V357.217C222.489 359.868 220.368 361.883 217.823 361.883H61.1067C58.4559 361.989 56.3352 359.868 56.3352 357.217Z" fill="#C4B6FF"></path>
    <path d="M165.02 344.068H50.7164C47.8535 344.068 45.5208 341.736 45.5208 338.873V326.891C45.5208 324.028 47.8535 321.695 50.7164 321.695H165.02C167.883 321.695 170.215 324.028 170.215 326.891V338.873C170.321 341.736 167.989 344.068 165.02 344.068ZM50.7164 322.65C48.3836 322.65 46.5811 324.558 46.5811 326.785V338.767C46.5811 341.099 48.4897 342.902 50.7164 342.902H165.02C167.353 342.902 169.155 340.993 169.155 338.767V326.785C169.155 324.452 167.246 322.65 165.02 322.65H50.7164Z" fill="#B5CDFB"></path>
    <path d="M129.605 387.012H15.1956C12.3327 387.012 10 384.679 10 381.816V369.834C10 366.971 12.3327 364.639 15.1956 364.639H129.499C132.362 364.639 134.695 366.971 134.695 369.834V381.816C134.801 384.679 132.468 387.012 129.605 387.012ZM15.1956 365.699C12.8629 365.699 11.0603 367.608 11.0603 369.834V381.816C11.0603 384.149 12.9689 385.951 15.1956 385.951H129.499C131.832 385.951 133.634 384.043 133.634 381.816V369.834C133.634 367.502 131.726 365.699 129.499 365.699H15.1956Z" fill="#B5CDFB"></path>
    <path d="M224.929 365.701H66.4097C63.5468 365.701 61.2141 363.368 61.2141 360.505V348.524C61.2141 345.661 63.5468 343.328 66.4097 343.328H224.929C227.792 343.328 230.124 345.661 230.124 348.524V360.505C230.124 363.262 227.792 365.701 224.929 365.701ZM66.4097 344.282C64.077 344.282 62.2744 346.191 62.2744 348.418V360.399C62.2744 362.732 64.183 364.535 66.4097 364.535H224.929C227.262 364.535 229.064 362.626 229.064 360.399V348.418C229.064 346.085 227.156 344.282 224.929 344.282H66.4097Z" fill="#B5CDFB"></path>
    <path d="M284.519 299.111H157.068C153.993 299.111 151.554 296.673 151.554 293.598V229.342C151.554 226.267 153.993 223.828 157.068 223.828H284.519C287.594 223.828 290.033 226.267 290.033 229.342V293.598C290.033 296.567 287.594 299.111 284.519 299.111Z" fill="#B5CDFB"></path>
    <path d="M483.649 498.348H212.629C195.451 498.348 181.561 512.238 181.561 529.415V530.9H514.61V529.415C514.61 512.238 500.72 498.348 483.649 498.348Z" fill="#C4B6FF"></path>
    <path d="M180.29 530.899C176.049 530.899 179.124 530.793 178.17 530.793V530.687V530.475V530.05V529.308V527.718C178.17 526.657 178.276 525.597 178.382 524.643C178.382 523.582 178.594 522.522 178.806 521.568L179.124 519.977C179.23 519.447 179.442 518.917 179.548 518.493C180.714 514.463 182.517 510.54 185.062 507.041C187.607 503.542 190.682 500.467 194.287 497.922C197.892 495.378 201.921 493.469 206.268 492.303C210.51 491.136 215.281 490.924 218.886 490.818L230.55 490.288C238.29 489.97 246.031 489.758 253.771 489.546C284.839 488.698 315.8 488.273 346.868 488.273C377.936 488.273 408.897 488.698 439.965 489.546C447.705 489.758 455.446 489.97 463.186 490.288L474.85 490.818C478.455 490.924 483.226 491.136 487.574 492.303C491.921 493.469 495.95 495.378 499.555 497.922C503.16 500.467 506.341 503.542 508.78 507.041C511.325 510.54 513.127 514.463 514.294 518.493C515.354 522.522 515.884 526.763 515.566 530.899C515.46 532.065 514.506 532.913 513.34 532.913C512.279 532.807 511.537 532.065 511.431 531.005V530.899C511.007 527.294 510.159 523.688 508.78 520.507C507.402 517.22 505.493 514.252 503.054 511.707C498.283 506.617 492.133 503.118 485.559 502.164C482.272 501.634 479.197 501.74 475.062 501.952L463.398 502.482C455.658 502.8 447.917 503.012 440.177 503.224C409.109 504.072 378.148 504.496 347.08 504.496C316.012 504.496 285.051 504.072 253.983 503.224C246.243 503.012 238.502 502.8 230.762 502.482L219.098 501.952C214.963 501.74 211.994 501.634 208.601 502.164C202.027 503.118 195.771 506.723 191.106 511.707C188.667 514.252 186.864 517.22 185.38 520.507C185.168 520.932 184.956 521.356 184.85 521.78L184.426 523.052C184.107 523.9 183.789 524.749 183.683 525.597C183.471 526.445 183.259 527.294 183.153 528.248L182.941 529.626L182.835 530.262V530.581V530.793V530.899C181.457 530.793 184.532 530.899 180.29 530.899Z" fill="#B5CDFB"></path>
    <path d="M379.419 410.129H314.103V488.275H379.419V410.129Z" fill="#7D55FF"></path>
    <path d="M467.424 493.151H226.199V491.454C226.199 487.743 229.274 484.668 232.985 484.668H460.638C464.349 484.668 467.424 487.743 467.424 491.454V493.151Z" fill="#C4B6FF"></path>
    <path d="M519.063 569.494H49.868C47.2172 569.494 44.9905 567.267 44.9905 564.616V557.194C44.9905 554.543 47.2172 552.316 49.868 552.316H518.957C521.608 552.316 523.835 554.543 523.835 557.194V564.616C523.835 567.373 521.714 569.494 519.063 569.494Z" fill="#B5CDFB"></path>
    <path d="M494.889 434.94H198.739C188.56 434.94 180.29 426.67 180.29 416.49V276.845C180.29 266.666 188.56 258.396 198.739 258.396H494.783C504.962 258.396 513.233 266.666 513.233 276.845V416.596C513.233 426.776 505.068 434.94 494.889 434.94Z" fill="#C4B6FF"></path>
    <path d="M501.357 445.436H192.165C180.608 445.436 171.277 436.105 171.277 424.548V268.891C171.277 257.334 180.608 248.003 192.165 248.003H501.357C512.915 248.003 522.246 257.334 522.246 268.891V424.654C522.246 436.105 512.915 445.436 501.357 445.436ZM192.165 250.018C181.774 250.018 173.398 258.5 173.398 268.785V424.548C173.398 434.939 181.88 443.315 192.165 443.315H501.357C511.748 443.315 520.125 434.833 520.125 424.548V268.891C520.125 258.5 511.642 250.124 501.357 250.124H192.165V250.018Z" fill="#C4B6FF"></path>
    <path d="M168.203 160.42H42.1299C39.055 160.42 36.6162 157.981 36.6162 154.906V89.378C36.6162 86.303 39.055 83.8643 42.1299 83.8643H168.097C171.172 83.8643 173.611 86.303 173.611 89.378V154.906C173.611 157.875 171.172 160.42 168.203 160.42Z" fill="#B5CDFB"></path>
    <path d="M451.308 159.466H323.856C320.782 159.466 318.343 157.027 318.343 153.952V89.6963C318.343 86.6214 320.782 84.1826 323.856 84.1826H451.308C454.383 84.1826 456.822 86.6214 456.822 89.6963V153.952C456.822 157.027 454.277 159.466 451.308 159.466Z" fill="#B5CDFB"></path>
    <path d="M77.224 554.438H57.926V551.787C57.926 550.727 58.7743 549.879 59.8346 549.879H75.2094C76.2697 549.879 77.118 550.727 77.118 551.787V554.438H77.224Z" fill="#7D55FF"></path>
    <path d="M98.325 554.438H79.1331V551.787C79.1331 550.727 79.9813 549.879 81.0417 549.879H96.4164C97.4767 549.879 98.325 550.727 98.325 551.787V554.438Z" fill="#7D55FF"></path>
    <path d="M203.826 554.438H100.232V551.787C100.232 550.727 101.08 549.879 102.141 549.879H201.811C202.872 549.879 203.72 550.727 203.72 551.787V554.438H203.826Z" fill="#7D55FF"></path>
    <path d="M225.353 554.438H206.161V551.787C206.161 550.727 207.009 549.879 208.069 549.879H223.444C224.505 549.879 225.353 550.727 225.353 551.787V554.438Z" fill="#7D55FF"></path>
    <path d="M246.451 554.438H227.26V551.787C227.26 550.727 228.108 549.879 229.168 549.879H244.543C245.603 549.879 246.451 550.727 246.451 551.787V554.438Z" fill="#7D55FF"></path>
    <path d="M267.659 554.438H248.467V551.787C248.467 550.727 249.315 549.879 250.375 549.879H265.75C266.81 549.879 267.659 550.727 267.659 551.787V554.438Z" fill="#7D55FF"></path>
    <path d="M288.755 554.438H269.563V551.787C269.563 550.727 270.412 549.879 271.472 549.879H286.847C287.907 549.879 288.755 550.727 288.755 551.787V554.438Z" fill="#7D55FF"></path>
    <path d="M309.962 554.438H290.771V551.787C290.771 550.727 291.619 549.879 292.679 549.879H308.054C309.114 549.879 309.962 550.727 309.962 551.787V554.438Z" fill="#7D55FF"></path>
    <path d="M331.065 554.438H311.873V551.787C311.873 550.727 312.721 549.879 313.782 549.879H329.156C330.217 549.879 331.065 550.727 331.065 551.787V554.438Z" fill="#7D55FF"></path>
    <path d="M352.272 554.438H333.08V551.787C333.08 550.727 333.929 549.879 334.989 549.879H350.364C351.424 549.879 352.272 550.727 352.272 551.787V554.438Z" fill="#7D55FF"></path>
    <path d="M373.479 554.438H354.287V551.787C354.287 550.727 355.136 549.879 356.196 549.879H371.571C372.631 549.879 373.479 550.727 373.479 551.787V554.438Z" fill="#7D55FF"></path>
    <path d="M394.578 554.438H375.386V551.787C375.386 550.727 376.234 549.879 377.295 549.879H392.669C393.73 549.879 394.578 550.727 394.578 551.787V554.438Z" fill="#7D55FF"></path>
    <path d="M415.785 554.438H396.593V551.787C396.593 550.727 397.442 549.879 398.502 549.879H413.877C414.937 549.879 415.785 550.727 415.785 551.787V554.438Z" fill="#7D55FF"></path>
    <path d="M432.751 561.013H36.9299C36.9299 556.241 40.7471 552.424 45.5186 552.424H424.162C428.933 552.424 432.751 556.241 432.751 561.013Z" fill="#C4B6FF"></path>
    <path d="M499.549 549.137L487.673 544.365C480.993 541.714 473.571 541.714 466.997 544.365L455.121 549.137C450.244 551.151 447.169 555.817 447.169 561.012H507.501C507.501 555.817 504.32 551.151 499.549 549.137Z" fill="#7D55FF"></path>
    <path d="M464.245 178.235C464.245 179.295 463.397 180.143 462.337 180.143H37.1449C36.0846 180.143 35.2363 179.295 35.2363 178.235C35.2363 177.174 36.0846 176.326 37.1449 176.326H462.337C463.397 176.326 464.245 177.174 464.245 178.235Z" fill="#C4B6FF"></path>
    <path d="M175.517 164.767H50.7165C46.7933 164.767 43.6123 161.586 43.6123 157.663V94.4675C43.6123 90.5443 46.7933 87.3633 50.7165 87.3633H175.623C179.546 87.3633 182.727 90.5443 182.727 94.4675V157.769C182.621 161.586 179.44 164.767 175.517 164.767ZM50.7165 89.59C47.9597 89.59 45.733 91.8167 45.733 94.5736V157.769C45.733 160.526 47.9597 162.753 50.7165 162.753H175.623C178.38 162.753 180.607 160.526 180.607 157.769V94.5736C180.607 91.8167 178.38 89.59 175.623 89.59H50.7165Z" fill="#C4B6FF"></path>
    <path d="M47.6857 89.8224L46.6763 91.6875L179.006 163.307L180.016 161.442L47.6857 89.8224Z" fill="#C4B6FF"></path>
    <path d="M178.875 89.7248L45.2603 160.257L46.2502 162.132L179.865 91.6001L178.875 89.7248Z" fill="#C4B6FF"></path>
    <path d="M243.061 119.704H194.816C192.908 119.704 191.423 118.219 191.423 116.311V91.9233C191.423 90.0147 192.908 88.5303 194.816 88.5303H243.061C244.97 88.5303 246.454 90.0147 246.454 91.9233V116.311C246.454 118.219 244.864 119.704 243.061 119.704ZM194.816 90.6509C194.074 90.6509 193.544 91.1811 193.544 91.9233V116.311C193.544 117.053 194.074 117.583 194.816 117.583H243.061C243.804 117.583 244.334 117.053 244.334 116.311V91.9233C244.334 91.1811 243.804 90.6509 243.061 90.6509H194.816Z" fill="#C4B6FF"></path>
    <path d="M194.215 90.125L193.208 91.9912L244.341 119.586L245.348 117.72L194.215 90.125Z" fill="#C4B6FF"></path>
    <path d="M243.918 89.4519L192.347 116.675L193.337 118.55L244.908 91.3272L243.918 89.4519Z" fill="#C4B6FF"></path>
    <path d="M243.061 163.389H194.816C192.908 163.389 191.423 161.905 191.423 159.996V135.609C191.423 133.7 192.908 132.216 194.816 132.216H243.061C244.97 132.216 246.454 133.7 246.454 135.609V159.996C246.454 161.799 244.864 163.389 243.061 163.389ZM194.816 134.336C194.074 134.336 193.544 134.867 193.544 135.609V159.996C193.544 160.739 194.074 161.269 194.816 161.269H243.061C243.804 161.269 244.334 160.739 244.334 159.996V135.609C244.334 134.867 243.804 134.336 243.061 134.336H194.816Z" fill="#C4B6FF"></path>
    <path d="M194.232 133.795L193.225 135.661L244.358 163.256L245.365 161.389L194.232 133.795Z" fill="#C4B6FF"></path>
    <path d="M243.927 133.132L192.357 160.354L193.347 162.23L244.917 135.007L243.927 133.132Z" fill="#C4B6FF"></path>
    <path d="M308.482 119.704H260.238C258.329 119.704 256.844 118.219 256.844 116.311V91.9233C256.844 90.0147 258.329 88.5303 260.238 88.5303H308.482C310.391 88.5303 311.876 90.0147 311.876 91.9233V116.311C311.77 118.219 310.285 119.704 308.482 119.704ZM260.238 90.6509C259.495 90.6509 258.965 91.1811 258.965 91.9233V116.311C258.965 117.053 259.495 117.583 260.238 117.583H308.482C309.225 117.583 309.755 117.053 309.755 116.311V91.9233C309.755 91.1811 309.225 90.6509 308.482 90.6509H260.238Z" fill="#C4B6FF"></path>
    <path d="M259.638 90.1192L258.631 91.9854L309.764 119.58L310.771 117.714L259.638 90.1192Z" fill="#C4B6FF"></path>
    <path d="M309.335 89.4529L257.764 116.676L258.754 118.551L310.325 91.3282L309.335 89.4529Z" fill="#C4B6FF"></path>
    <path d="M308.482 163.389H260.238C258.329 163.389 256.844 161.905 256.844 159.996V135.609C256.844 133.7 258.329 132.216 260.238 132.216H308.482C310.391 132.216 311.876 133.7 311.876 135.609V159.996C311.77 161.799 310.285 163.389 308.482 163.389ZM260.238 134.336C259.495 134.336 258.965 134.867 258.965 135.609V159.996C258.965 160.739 259.495 161.269 260.238 161.269H308.482C309.225 161.269 309.755 160.739 309.755 159.996V135.609C309.755 134.867 309.225 134.336 308.482 134.336H260.238Z" fill="#C4B6FF"></path>
    <path d="M259.654 133.787L258.646 135.653L309.78 163.248L310.787 161.382L259.654 133.787Z" fill="#C4B6FF"></path>
    <path d="M309.345 133.133L257.774 160.355L258.764 162.231L310.335 135.008L309.345 133.133Z" fill="#C4B6FF"></path>
    <path d="M456.821 164.767H331.915C327.992 164.767 324.811 161.586 324.811 157.663V94.4675C324.811 90.5443 327.992 87.3633 331.915 87.3633H456.821C460.745 87.3633 463.926 90.5443 463.926 94.4675V157.769C463.82 161.586 460.639 164.767 456.821 164.767ZM331.915 89.59C329.158 89.59 326.931 91.8167 326.931 94.5736V157.769C326.931 160.526 329.158 162.753 331.915 162.753H456.821C459.578 162.753 461.805 160.526 461.805 157.769V94.5736C461.805 91.8167 459.578 89.59 456.821 89.59H331.915Z" fill="#C4B6FF"></path>
    <path d="M328.876 89.465L327.871 91.332L460.523 162.766L461.528 160.899L328.876 89.465Z" fill="#C4B6FF"></path>
    <path d="M460.064 89.7454L326.449 160.277L327.439 162.153L461.054 91.6207L460.064 89.7454Z" fill="#C4B6FF"></path>
    <path d="M115.184 500.891H26.5404C18.694 500.891 12.332 507.253 12.332 515.099V520.295H129.498V515.099C129.498 507.253 123.136 500.891 115.184 500.891Z" fill="#7D55FF"></path>
    <path d="M139.041 524.644C138.405 524.644 137.981 524.22 137.981 523.583V518.388C137.981 511.072 132.043 505.24 124.833 505.24H36.0832C28.7669 505.24 22.9351 511.178 22.9351 518.388C22.9351 519.024 22.511 519.448 21.8748 519.448C21.2386 519.448 20.8145 519.024 20.8145 518.388C20.8145 509.905 27.7066 503.119 36.0832 503.119H124.833C133.315 503.119 140.101 510.011 140.101 518.388V523.583C140.101 524.22 139.571 524.644 139.041 524.644Z" fill="#C1EDF5"></path>
    <path d="M50.3991 435.789L41.2803 402.601L45.8397 387.014L57.5033 397.829L68.8488 437.485L50.6112 438.44L50.3991 435.789Z" fill="#7D55FF"></path>
    <path opacity="0.79" d="M41.2803 402.6L47.7483 402.918L56.7611 432.819L49.975 434.303L41.2803 402.6Z" fill="white"></path>
    <path d="M72.5596 443.21L80.6181 407.37L78.2854 395.919C77.9673 394.434 75.9527 394.01 75.2104 395.389L68.5304 405.992L61.2141 442.255L72.5596 443.21Z" fill="#7D55FF"></path>
    <path d="M43.1888 431.97L49.3387 496.969C49.5508 499.513 52.2016 501.634 55.0645 501.634H82.8451C85.814 501.634 88.3588 499.619 88.5709 496.969L94.7208 431.97C95.0389 427.411 42.6586 427.411 43.1888 431.97Z" fill="#C4B6FF"></path>
    <path d="M92.8117 491.668C92.8117 491.668 92.7057 491.668 92.8117 491.668C92.1755 491.562 91.7514 491.138 91.7514 490.502L95.9927 445.332C96.0987 444.06 95.6746 442.787 94.8263 441.727C93.9781 440.772 92.7057 440.136 91.4333 440.136L53.6856 441.091C53.0494 441.091 52.6252 440.666 52.6252 440.03C52.6252 439.394 53.0494 438.97 53.6856 438.97L91.5393 438.016C93.5539 438.122 95.2505 438.97 96.5229 440.348C97.7952 441.833 98.3254 443.635 98.2194 445.544L93.9781 490.714C93.766 491.244 93.3419 491.668 92.8117 491.668Z" fill="#C1EDF5"></path>
    <path d="M46.8974 491.244C45.9431 491.244 45.0948 490.926 44.3526 490.396C43.3983 489.654 42.8681 488.7 42.7621 487.533L38.3087 449.149C38.2027 448.619 38.6268 448.089 39.263 447.983C39.8992 447.877 40.3233 448.301 40.4294 448.937L44.8828 487.321C44.9888 487.851 45.2009 488.382 45.731 488.7C46.1552 489.018 46.7913 489.23 47.3215 489.124L63.4385 486.579C64.0747 486.473 64.6049 486.897 64.6049 487.427C64.7109 487.957 64.2868 488.594 63.7566 488.594L47.6396 491.138C47.3215 491.244 47.1094 491.244 46.8974 491.244Z" fill="#C1EDF5"></path>
    <path opacity="0.17" d="M290.775 378.53H204.57C203.192 378.53 202.132 377.469 202.132 376.091V294.657C202.132 293.279 203.192 292.219 204.57 292.219H290.775C292.153 292.219 293.214 293.279 293.214 294.657V376.091C293.214 377.469 292.047 378.53 290.775 378.53Z" fill="black"></path>
    <path d="M261.298 324.559C268.501 324.559 274.34 318.72 274.34 311.517C274.34 304.314 268.501 298.475 261.298 298.475C254.095 298.475 248.256 304.314 248.256 311.517C248.256 318.72 254.095 324.559 261.298 324.559Z" fill="#7D55FF"></path>
    <path d="M237.863 351.492C237.863 341.207 248.36 332.83 261.296 332.83C274.232 332.83 284.73 341.207 284.73 351.492H237.863Z" fill="#7D55FF"></path>
    <path d="M233.731 365.806H225.46C223.34 365.806 221.643 364.11 221.643 361.989C221.643 359.868 223.34 358.172 225.46 358.172H233.731C235.852 358.172 237.548 359.868 237.548 361.989C237.548 364.11 235.852 365.806 233.731 365.806Z" fill="#7D55FF"></path>
    <path d="M296.714 365.806H272.115C269.994 365.806 268.298 364.11 268.298 361.989C268.298 359.868 269.994 358.172 272.115 358.172H296.714C298.835 358.172 300.532 359.868 300.532 361.989C300.638 364.11 298.835 365.806 296.714 365.806Z" fill="#7D55FF"></path>
    <path d="M321.416 283.843C320.568 283.843 319.825 283.101 319.825 282.253V279.072C319.825 278.224 320.568 277.481 321.416 277.481C322.264 277.481 323.006 278.224 323.006 279.072V282.253C323.006 283.101 322.264 283.843 321.416 283.843Z" fill="#7D55FF"></path>
    <path d="M321.416 397.404C320.568 397.404 319.825 396.662 319.825 395.814V389.452C319.825 388.603 320.568 387.861 321.416 387.861C322.264 387.861 323.006 388.603 323.006 389.452V395.814C323.006 396.662 322.264 397.404 321.416 397.404ZM321.416 384.786C320.568 384.786 319.825 384.044 319.825 383.196V376.834C319.825 375.986 320.568 375.243 321.416 375.243C322.264 375.243 323.006 375.986 323.006 376.834V383.196C323.006 384.044 322.264 384.786 321.416 384.786ZM321.416 372.168C320.568 372.168 319.825 371.426 319.825 370.578V364.216C319.825 363.368 320.568 362.625 321.416 362.625C322.264 362.625 323.006 363.368 323.006 364.216V370.578C323.006 371.426 322.264 372.168 321.416 372.168ZM321.416 359.55C320.568 359.55 319.825 358.808 319.825 357.96V351.598C319.825 350.75 320.568 350.008 321.416 350.008C322.264 350.008 323.006 350.75 323.006 351.598V357.96C323.006 358.808 322.264 359.55 321.416 359.55ZM321.416 346.933C320.568 346.933 319.825 346.19 319.825 345.342V338.98C319.825 338.132 320.568 337.39 321.416 337.39C322.264 337.39 323.006 338.132 323.006 338.98V345.342C323.006 346.19 322.264 346.933 321.416 346.933ZM321.416 334.315C320.568 334.315 319.825 333.572 319.825 332.724V326.362C319.825 325.514 320.568 324.772 321.416 324.772C322.264 324.772 323.006 325.514 323.006 326.362V332.724C323.006 333.572 322.264 334.315 321.416 334.315ZM321.416 321.697C320.568 321.697 319.825 320.955 319.825 320.106V313.744C319.825 312.896 320.568 312.154 321.416 312.154C322.264 312.154 323.006 312.896 323.006 313.744V320.106C323.006 320.955 322.264 321.697 321.416 321.697ZM321.416 309.079C320.568 309.079 319.825 308.337 319.825 307.488V301.126C319.825 300.278 320.568 299.536 321.416 299.536C322.264 299.536 323.006 300.278 323.006 301.126V307.488C323.006 308.337 322.264 309.079 321.416 309.079ZM321.416 296.461C320.568 296.461 319.825 295.719 319.825 294.87V288.508C319.825 287.66 320.568 286.918 321.416 286.918C322.264 286.918 323.006 287.66 323.006 288.508V294.87C323.006 295.719 322.264 296.461 321.416 296.461Z" fill="#7D55FF"></path>
    <path d="M321.416 406.84C320.568 406.84 319.825 406.098 319.825 405.25V402.069C319.825 401.221 320.568 400.479 321.416 400.479C322.264 400.479 323.006 401.221 323.006 402.069V405.25C323.006 406.204 322.264 406.84 321.416 406.84Z" fill="#7D55FF"></path>
    <path d="M387.69 284.903H338.809V311.518H387.69V284.903Z" fill="#7D55FF"></path>
    <path d="M387.69 315.229H338.809V320.106H387.69V315.229Z" fill="#7D55FF"></path>
    <path d="M437.949 326.15H338.809V331.028H437.949V326.15Z" fill="#7D55FF"></path>
    <path d="M476.969 334.314H338.809V339.192H476.969V334.314Z" fill="#7D55FF"></path>
    <path d="M437.949 342.586H338.809V347.463H437.949V342.586Z" fill="#7D55FF"></path>
    <path d="M468.487 350.855H338.809V355.733H468.487V350.855Z" fill="#7D55FF"></path>
    <path d="M464.351 359.02H338.809V363.897H464.351V359.02Z" fill="#7D55FF"></path>
    <path d="M478.666 367.291H338.809V372.169H478.666V367.291Z" fill="#7D55FF"></path>
    <path d="M465.412 375.562H338.809V380.44H465.412V375.562Z" fill="#7D55FF"></path>
    <path d="M482.271 383.832H338.809V388.71H482.271V383.832Z" fill="#7D55FF"></path>
    <path d="M495.207 391.996H338.809V396.874H495.207V391.996Z" fill="#7D55FF"></path>
    <path d="M501.251 400.266H338.809V405.143H501.251V400.266Z" fill="#7D55FF"></path>
    <path d="M442.405 284.903H393.524V311.518H442.405V284.903Z" fill="#7D55FF"></path>
    <path d="M442.405 315.229H393.524V320.106H442.405V315.229Z" fill="#7D55FF"></path>
    <path d="M496.903 284.903H448.022V311.518H496.903V284.903Z" fill="#7D55FF"></path>
    <path d="M496.903 315.229H448.022V320.106H496.903V315.229Z" fill="#7D55FF"></path>
    <path opacity="0.9" d="M674.615 263.591V395.178C674.615 397.617 674.19 400.055 673.342 402.282C670.479 409.598 663.481 414.688 655.211 414.688H450.567C439.858 414.688 431.057 405.993 431.057 395.178V263.591C431.057 252.776 439.752 244.081 450.567 244.081H655.105C665.92 244.081 674.615 252.882 674.615 263.591Z" fill="#B5CDFB"></path>
    <path d="M611.737 372.17H494.04C484.709 372.17 477.181 364.641 477.181 355.31C477.181 345.979 484.709 338.451 494.04 338.451H611.737C621.068 338.451 628.596 345.979 628.596 355.31C628.596 364.641 621.068 372.17 611.737 372.17Z" fill="#7D55FF"></path>
    <path opacity="0.2" d="M599.225 368.774L622.128 414.686H582.896L567.839 384.467C566.567 381.922 565.931 379.272 565.931 376.621C565.931 370.153 569.536 364.003 575.686 360.928C584.274 356.58 594.878 360.08 599.225 368.774Z" fill="black"></path>
    <path d="M618.205 355.309C618.205 359.02 616.721 362.308 614.282 364.746C611.843 367.185 608.556 368.67 604.845 368.67H558.403C551.087 368.67 545.043 362.732 545.043 355.309C545.043 351.598 546.527 348.311 548.966 345.872C551.405 343.434 554.692 341.949 558.403 341.949H604.845C612.162 341.949 618.205 347.887 618.205 355.309Z" fill="#C4B6FF"></path>
    <path d="M611.737 322.651H494.04C484.179 322.651 476.121 314.592 476.121 304.731C476.121 294.87 484.179 286.812 494.04 286.812H611.737C621.598 286.812 629.656 294.87 629.656 304.731C629.656 314.592 621.598 322.651 611.737 322.651ZM494.04 288.932C485.345 288.932 478.241 296.036 478.241 304.731C478.241 313.426 485.345 320.53 494.04 320.53H611.737C620.431 320.53 627.536 313.426 627.536 304.731C627.536 296.036 620.431 288.932 611.737 288.932H494.04Z" fill="#7D55FF"></path>
    <path opacity="0.85" d="M540.907 318.091H494.464C487.148 318.091 481.104 312.154 481.104 304.731C481.104 297.415 487.042 291.371 494.464 291.371H540.907C548.223 291.371 554.267 297.309 554.267 304.731C554.161 312.047 548.223 318.091 540.907 318.091Z" fill="#7D55FF"></path>
    <path opacity="0.3" d="M602.3 364.64C602.3 366.019 602.194 367.397 601.876 368.669H568.476C568.158 367.397 568.052 366.019 568.052 364.64C568.052 355.097 575.792 347.463 585.229 347.463C594.666 347.463 602.3 355.097 602.3 364.64Z" fill="black"></path>
    <path d="M745.549 502.694L726.569 464.734L729.008 463.462C736.112 459.857 738.975 451.268 735.476 444.164L709.073 391.466C705.468 384.362 696.88 381.499 689.775 384.998L638.562 410.658L610.781 355.096C606.434 346.402 595.936 342.903 587.242 347.25C578.547 351.597 575.048 362.095 579.395 370.789L616.189 444.27L619.37 450.526L606.858 443.528C599.011 439.181 589.256 442.043 584.909 449.784L583.531 452.223C579.183 460.069 582.046 469.824 589.787 474.171L649.907 507.572C651.498 508.526 653.3 509.056 654.997 509.374L670.478 540.23C673.659 546.592 681.293 549.137 687.655 545.956L740.035 519.766C746.185 516.691 748.73 509.056 745.549 502.694Z" fill="#7D55FF"></path>
    <path d="M698.471 522.947C697.835 522.947 697.199 522.629 696.668 521.887C695.82 520.827 695.396 519.236 696.244 518.282L729.645 478.307C729.645 478.095 729.433 477.671 729.221 477.459L680.127 502.059C679.597 502.271 678.961 502.059 678.749 501.635C678.537 501.104 678.749 500.468 679.173 500.256L728.584 475.551C729.221 475.232 730.175 475.232 731.023 476.293C731.765 477.247 732.19 478.731 731.341 479.686L697.941 519.766C697.941 519.978 698.259 520.614 698.577 520.933L749.155 495.591C749.685 495.379 750.321 495.591 750.533 496.015C750.745 496.545 750.533 497.181 750.109 497.393L699.319 522.841C699.001 522.841 698.683 522.947 698.471 522.947Z" fill="#C4B6FF"></path>
    <path d="M601.134 378.847C600.71 378.847 600.392 378.847 600.179 378.741C599.331 378.634 596.999 378.21 588.304 359.443C587.668 358.17 587.668 356.792 588.198 355.413C588.728 354.141 589.682 353.081 590.955 352.55L601.24 348.203C603.679 347.143 606.541 348.203 607.814 350.536L616.509 367.501C617.781 370.046 616.933 373.227 614.494 374.711C610.465 377.256 604.315 378.847 601.134 378.847ZM591.591 354.671C590.849 354.989 590.212 355.625 590 356.368C589.682 357.11 589.788 357.958 590.106 358.7C596.468 372.379 599.649 376.514 600.498 376.832C602.512 377.15 609.298 375.56 613.222 373.227C614.706 372.272 615.236 370.364 614.494 368.879L605.799 351.808C605.057 350.43 603.466 349.794 601.982 350.43L591.591 354.671Z" fill="#C4B6FF"></path>
    <path d="M721.164 355.097C720.634 355.097 720.209 354.673 720.209 354.143V324.241C720.209 323.711 720.634 323.287 721.164 323.287C721.694 323.287 722.118 323.711 722.118 324.241V354.249C722.012 354.673 721.694 355.097 721.164 355.097Z" fill="#C4B6FF"></path>
    <path d="M736.008 355.097C735.477 355.097 735.053 354.673 735.053 354.143V324.241C735.053 323.711 735.477 323.287 736.008 323.287C736.538 323.287 736.962 323.711 736.962 324.241V354.249C736.962 354.673 736.538 355.097 736.008 355.097Z" fill="#C4B6FF"></path>
    <path d="M712.679 333.148C712.679 332.618 713.103 332.193 713.633 332.193H743.641C744.171 332.193 744.595 332.618 744.595 333.148C744.595 333.678 744.171 334.102 743.641 334.102H713.633C713.103 334.102 712.679 333.678 712.679 333.148Z" fill="#C4B6FF"></path>
    <path d="M712.679 345.13C712.679 344.6 713.103 344.176 713.633 344.176H743.641C744.171 344.176 744.595 344.6 744.595 345.13C744.595 345.66 744.171 346.084 743.641 346.084H713.633C713.103 346.084 712.679 345.66 712.679 345.13Z" fill="#C4B6FF"></path>
    <path d="M689.25 61.9159C688.72 61.9159 688.296 61.4918 688.296 60.9616V30.9543C688.296 30.4242 688.72 30 689.25 30C689.781 30 690.205 30.4242 690.205 30.9543V60.9616C690.099 61.4918 689.781 61.9159 689.25 61.9159Z" fill="#C4B6FF"></path>
    <path d="M704.094 61.9159C703.564 61.9159 703.14 61.4918 703.14 60.9616V30.9543C703.14 30.4242 703.564 30 704.094 30C704.624 30 705.048 30.4242 705.048 30.9543V60.9616C705.048 61.4918 704.624 61.9159 704.094 61.9159Z" fill="#C4B6FF"></path>
    <path d="M680.766 40.0725C680.766 39.5423 681.19 39.1182 681.72 39.1182H711.727C712.258 39.1182 712.682 39.5423 712.682 40.0725C712.682 40.6027 712.258 41.0268 711.727 41.0268H681.72C681.19 40.9208 680.766 40.4966 680.766 40.0725Z" fill="#C4B6FF"></path>
    <path d="M680.766 52.0548C680.766 51.5247 681.19 51.1006 681.72 51.1006H711.727C712.258 51.1006 712.682 51.5247 712.682 52.0548C712.682 52.585 712.258 53.0092 711.727 53.0092H681.72C681.19 52.9031 680.766 52.479 680.766 52.0548Z" fill="#C4B6FF"></path>
    <path d="M100.449 253.094C99.9185 253.094 99.4944 252.67 99.4944 252.139V222.132C99.4944 221.602 99.9185 221.178 100.449 221.178C100.979 221.178 101.403 221.602 101.403 222.132V252.139C101.403 252.776 100.979 253.094 100.449 253.094Z" fill="#C4B6FF"></path>
    <path d="M115.397 253.094C114.867 253.094 114.443 252.67 114.443 252.139V222.132C114.443 221.602 114.867 221.178 115.397 221.178C115.927 221.178 116.351 221.602 116.351 222.132V252.139C116.245 252.776 115.821 253.094 115.397 253.094Z" fill="#C4B6FF"></path>
    <path d="M91.9641 231.251C91.9641 230.721 92.3882 230.297 92.9184 230.297H122.926C123.456 230.297 123.88 230.721 123.88 231.251C123.88 231.781 123.456 232.205 122.926 232.205H92.9184C92.3882 232.205 91.9641 231.781 91.9641 231.251Z" fill="#C4B6FF"></path>
    <path d="M91.9641 243.232C91.9641 242.701 92.3882 242.277 92.9184 242.277H122.926C123.456 242.277 123.88 242.701 123.88 243.232C123.88 243.762 123.456 244.186 122.926 244.186H92.9184C92.3882 244.08 91.9641 243.762 91.9641 243.232Z" fill="#C4B6FF"></path>
    <path d="M611.737 174.629H522.458V85.3496H611.737V174.629ZM524.684 172.509H609.723V87.4703H524.684V172.509Z" fill="#B5CDFB"></path>
    <path opacity="0.17" d="M596.677 180.036H510.473C509.094 180.036 508.034 178.976 508.034 177.598V96.1644C508.034 94.786 509.094 93.7256 510.473 93.7256H596.677C598.056 93.7256 599.116 94.786 599.116 96.1644V177.598C599.01 178.976 597.95 180.036 596.677 180.036Z" fill="#B5CDFB"></path>
    <path d="M567.202 126.066C574.405 126.066 580.244 120.226 580.244 113.023C580.244 105.821 574.405 99.9814 567.202 99.9814C559.999 99.9814 554.16 105.821 554.16 113.023C554.16 120.226 559.999 126.066 567.202 126.066Z" fill="#C4B6FF"></path>
    <path d="M543.665 152.998C543.665 142.713 554.162 134.336 567.098 134.336C580.034 134.336 590.531 142.713 590.531 152.998H543.665Z" fill="#C4B6FF"></path>
    <path d="M539.632 167.313H531.361C529.24 167.313 527.544 165.617 527.544 163.496C527.544 161.375 529.24 159.679 531.361 159.679H539.632C541.752 159.679 543.449 161.375 543.449 163.496C543.449 165.617 541.646 167.313 539.632 167.313Z" fill="#C4B6FF"></path>
    <path d="M602.615 167.313H578.015C575.895 167.313 574.198 165.617 574.198 163.496C574.198 161.375 575.895 159.679 578.015 159.679H602.615C604.736 159.679 606.432 161.375 606.432 163.496C606.432 165.617 604.736 167.313 602.615 167.313Z" fill="#C4B6FF"></path>
    <path d="M726.147 180.036H639.943C638.564 180.036 637.504 178.976 637.504 177.598V96.1644C637.504 94.786 638.564 93.7256 639.943 93.7256H726.147C727.526 93.7256 728.586 94.786 728.586 96.1644V177.598C728.586 178.976 727.526 180.036 726.147 180.036Z" fill="#C4B6FF"></path>
    <path d="M696.668 126.066C703.871 126.066 709.71 120.226 709.71 113.023C709.71 105.821 703.871 99.9814 696.668 99.9814C689.465 99.9814 683.626 105.821 683.626 113.023C683.626 120.226 689.465 126.066 696.668 126.066Z" fill="#7D55FF"></path>
    <path d="M673.236 152.998C673.236 142.713 683.733 134.336 696.669 134.336C709.605 134.336 720.102 142.713 720.102 152.998H673.236Z" fill="#7D55FF"></path>
    <path d="M669.1 167.313H660.829C658.708 167.313 657.012 165.617 657.012 163.496C657.012 161.375 658.708 159.679 660.829 159.679H669.1C671.22 159.679 672.917 161.375 672.917 163.496C672.917 165.617 671.22 167.313 669.1 167.313Z" fill="#7D55FF"></path>
    <path d="M732.19 167.313H707.59C705.47 167.313 703.773 165.617 703.773 163.496C703.773 161.375 705.47 159.679 707.59 159.679H732.19C734.31 159.679 736.007 161.375 736.007 163.496C736.007 165.617 734.31 167.313 732.19 167.313Z" fill="#7D55FF"></path>
    <path d="M741.308 174.629H652.029V85.3496H741.308V174.629ZM654.149 172.509H739.188V87.4703H654.149V172.509Z" fill="#7D55FF"></path>
    <path d="M433.178 198.911C433.178 198.381 433.602 197.957 434.133 197.957H464.14C464.67 197.957 465.094 198.381 465.094 198.911C465.094 199.441 464.67 199.866 464.14 199.866H434.133C433.602 199.866 433.178 199.441 433.178 198.911Z" fill="#C4B6FF"></path>
    <path d="M433.178 206.333C433.178 205.803 433.602 205.379 434.133 205.379H464.14C464.67 205.379 465.094 205.803 465.094 206.333C465.094 206.863 464.67 207.287 464.14 207.287H434.133C433.602 207.287 433.178 206.863 433.178 206.333Z" fill="#C4B6FF"></path>
    <path d="M386.096 198.911C386.096 198.381 386.52 197.957 387.05 197.957H417.058C417.588 197.957 418.012 198.381 418.012 198.911C418.012 199.441 417.588 199.866 417.058 199.866H387.05C386.52 199.866 386.096 199.441 386.096 198.911Z" fill="#C4B6FF"></path>
    <path d="M386.096 206.333C386.096 205.803 386.52 205.379 387.05 205.379H417.058C417.588 205.379 418.012 205.803 418.012 206.333C418.012 206.863 417.588 207.287 417.058 207.287H387.05C386.52 207.287 386.096 206.863 386.096 206.333Z" fill="#C4B6FF"></path>
    <path d="M339.021 198.911C339.021 198.381 339.446 197.957 339.976 197.957H369.983C370.513 197.957 370.937 198.381 370.937 198.911C370.937 199.441 370.513 199.866 369.983 199.866H339.976C339.446 199.866 339.021 199.441 339.021 198.911Z" fill="#C4B6FF"></path>
    <path d="M339.021 206.333C339.021 205.803 339.446 205.379 339.976 205.379H369.983C370.513 205.379 370.937 205.803 370.937 206.333C370.937 206.863 370.513 207.287 369.983 207.287H339.976C339.446 207.287 339.021 206.863 339.021 206.333Z" fill="#C4B6FF"></path>
    <path d="M454.492 277.481C450.675 277.481 447.494 274.3 447.494 270.483C447.494 266.665 450.675 263.484 454.492 263.484C458.309 263.484 461.49 266.665 461.49 270.483C461.49 274.3 458.309 277.481 454.492 277.481ZM454.492 265.605C451.841 265.605 449.614 267.832 449.614 270.483C449.614 273.133 451.841 275.36 454.492 275.36C457.143 275.36 459.369 273.133 459.369 270.483C459.369 267.832 457.143 265.605 454.492 265.605Z" fill="#C1EDF5"></path>
    <path opacity="0.85" d="M472.515 276.421C475.795 276.421 478.453 273.762 478.453 270.483C478.453 267.203 475.795 264.545 472.515 264.545C469.236 264.545 466.578 267.203 466.578 270.483C466.578 273.762 469.236 276.421 472.515 276.421Z" fill="#7D55FF"></path>
    <path d="M490.435 276.421C493.714 276.421 496.373 273.762 496.373 270.483C496.373 267.203 493.714 264.545 490.435 264.545C487.155 264.545 484.497 267.203 484.497 270.483C484.497 273.762 487.155 276.421 490.435 276.421Z" fill="#C1EDF5"></path>
    <path d="M305.936 373.122H216.656V283.843H305.936V373.122ZM218.777 371.002H303.815V285.963H218.777V371.002Z" fill="#B5CDFB"></path>
</svg>