<svg width="149" height="137" viewBox="0 0 149 137" fill="none" xmlns="http://www.w3.org/2000/svg">
    <path d="M69.8112 2.48907C72.7433 0.932552 76.2567 0.93255 79.1888 2.48907L133.708 31.4305C136.976 33.1654 139.019 36.5631 139.019 40.2632V96.7368C139.019 100.437 136.976 103.835 133.708 105.569L79.1888 134.511C76.2567 136.067 72.7433 136.067 69.8112 134.511L15.2923 105.569C12.0242 103.835 9.98111 100.437 9.98111 96.7368V40.2632C9.98111 36.5631 12.0242 33.1654 15.2923 31.4305L69.8112 2.48907Z" fill="#B153FD"/>
    <path d="M66.5661 15.6146C70.9112 13.3495 76.0888 13.3495 80.4339 15.6146L110.034 31.0452C114.991 33.6294 118.1 38.7559 118.1 44.3463V72.6537C118.1 78.2441 114.991 83.3706 110.034 85.9548L80.4339 101.385C76.0888 103.65 70.9112 103.65 66.5661 101.385L36.9658 85.9548C32.0085 83.3706 28.8997 78.2441 28.8997 72.6537V44.3463C28.8997 38.7559 32.0086 33.6294 36.9658 31.0452L66.5661 15.6146Z" fill="#DCAFFF"/>
    <path d="M76.3807 121.237C75.1747 121.726 73.8253 121.726 72.6193 121.237L35.4126 106.133C31.2535 104.444 31.2535 98.5555 35.4126 96.8672L72.6193 81.7634C73.8253 81.2739 75.1747 81.2739 76.3807 81.7634L113.587 96.8672C117.747 98.5555 117.747 104.444 113.587 106.133L76.3807 121.237Z" fill="#7D4EA4" fill-opacity="0.5"/>
    <path d="M31.5669 83.0766C29.9823 82.1939 29 80.5223 29 78.7085L29 36.877C29 35.0245 30.0243 33.3238 31.6618 32.4574L68.5345 12.9497C71.8939 11.1724 75.9297 13.6448 75.8721 17.445L74.6424 98.6381C74.5852 102.419 70.5134 104.771 67.2099 102.93L31.5669 83.0766Z" fill="#C091E6" fill-opacity="0.5"/>
</svg>
